<?xml version="1.0" encoding="utf-8"?>
<!-- Generator: Adobe Illustrator 17.1.0, SVG Export Plug-In . SVG Version: 6.00 Build 0)  -->
<!DOCTYPE svg PUBLIC "-//W3C//DTD SVG 1.1//EN" "http://www.w3.org/Graphics/SVG/1.1/DTD/svg11.dtd">
<svg version="1.1" id="Layer_1" xmlns="http://www.w3.org/2000/svg" xmlns:xlink="http://www.w3.org/1999/xlink" x="0px" y="0px"
	 viewBox="0 0 200 200" enable-background="new 0 0 200 200" xml:space="preserve">
<ellipse fill="#CCE8F1" cx="97.6" cy="166.2" rx="19" ry="11.3"/>
<path opacity="0.61" fill="#E8F2F4" d="M111.9,173.6c-0.6-0.9-1.4-1.6-2.5-1.9c-4.1-1.3-9.5-12.1-9.5-12.1s-3.6-1.9-3.6,0.1
	c0,2-10.5,2.8-14.1,3.1c-1,0.1-2,0.1-2.8,0.1c-0.5,1.1-0.8,2.2-0.8,3.3c0,6.3,8.5,11.3,19,11.3C103.3,177.5,108.4,176,111.9,173.6z"
	/>
<circle fill="#A0CAD3" cx="97.4" cy="156" r="7.1"/>
<path fill="#81B2B7" d="M100.6,149.7c1,1.7,1.6,3.8,1.6,6.1c0,2.6-0.8,5-2,6.7c2.5-1.1,4.3-3.6,4.3-6.5
	C104.5,153.3,102.9,150.9,100.6,149.7z"/>
<path fill="#CDE6F0" d="M80.1,84.6c0,0-1.9,3,1.4,8.5c3.3,5.5,2.7,8.5,2.4,12.6c-0.3,4.9-4.9,20.2-5.6,23.7
	c-0.7,3.5-2.6,14.2,4.2,20.5c5.3,4.9,10.9,6.4,15.3,6.4c4.4,0,12.1-1.8,15.6-7c4.7-7.2,4.8-16.6,3.4-20.9
	c-2.2-6.8-3.6-12.4-4.7-16.7c-1-4.1-0.1-11.9,1-15.8c0.8-2.8,2.9-6.8,2.9-6.8l-9.4-6.9l-15.8,2L80.1,84.6z"/>
<ellipse fill="#ECF8FE" cx="97.8" cy="86.8" rx="18.8" ry="10.8"/>
<path fill="#FFC25C" d="M91.8,119.4l-11,4.5c0,0-1.8,7.3-1.8,9.5c0,5.1,1.3,11.7,5.3,15.2c3.1,2.8,5,4.7,13.5,4.6
	c7.8-0.1,12.6-3.5,14.5-6.5c1.7-2.8,4.2-5.9,2.8-17.7c-1.5-13.5-6.7-6.9-6.7-6.9L91.8,119.4z"/>
<ellipse fill="#FFD17C" cx="97.7" cy="124.4" rx="16.8" ry="8.9"/>
<line fill="#99895B" x1="147.3" y1="63.6" x2="149.1" y2="66.3"/>
<g id="Isolation_Mode">
	<g>
		<g>
			<path fill="#912740" d="M150.2,58.6l-0.1-0.3c-0.3-0.6-1.2-0.8-1.8-0.6l-9.3,2.8v2.3c6-1.6,10.5-2.8,10.5-2.8
				C150.1,59.7,150.5,59.1,150.2,58.6z"/>
			<path fill="#912740" d="M104.8,96.8l-12.2,28.8c-0.2,0.5,0,1.2,0.6,1.5l0.3,0.1c0.6,0.3,1.3,0.1,1.5-0.4c0,0,6.8-16.2,13-30.8
				L104.8,96.8z"/>
		</g>
	</g>
</g>
<ellipse fill="#B6DCE0" cx="97.7" cy="86.8" rx="17.9" ry="10.1"/>
<path fill="#B23850" d="M150.2,58.6l-0.1-0.3c-0.3-0.6-1-0.8-1.6-0.6L117.8,67c-0.3,0.1-0.5,0.3-0.6,0.6c-0.1,0.1-0.1,0.1-0.2,0.2
	L104.9,96l3.5-1.2c5.4-12.9,10.8-25.4,11-25.7c1.6-1.6,30.2-9.2,30.2-9.2C150.3,59.7,150.5,59.1,150.2,58.6z"/>
</svg>
