<?xml version="1.0" encoding="utf-8"?>
<!-- Generator: Adobe Illustrator 17.1.0, SVG Export Plug-In . SVG Version: 6.00 Build 0)  -->
<!DOCTYPE svg PUBLIC "-//W3C//DTD SVG 1.1//EN" "http://www.w3.org/Graphics/SVG/1.1/DTD/svg11.dtd">
<svg version="1.1" id="Layer_1" xmlns="http://www.w3.org/2000/svg" xmlns:xlink="http://www.w3.org/1999/xlink" x="0px" y="0px"
	 viewBox="0 0 200 200" enable-background="new 0 0 200 200" xml:space="preserve">
<path fill="#E2EAEE" d="M157.1,82.9c0.2-0.2,4.2-6.1,4.9-6.1c0.7,0,7.3-5,4.5,4.8c-1.4,5-0.3,13-2.5,15.7c-2.2,2.7-10,2.2-10,2.2
	v4.4c0,0,5.3,0.7,7-0.1c1.7-0.9,6.8-3.3,8-6.4c1.2-3.1-0.3-6.2,0-10.3c0.3-4.1,3.3-10,0.5-13.8c-2.8-3.7-6.8-0.7-8.6,0.3
	c-1.7,0.9-7.5,7.3-7.5,7.3L157.1,82.9z"/>
<ellipse fill="#E3F3FE" cx="136.7" cy="143.8" rx="24.7" ry="14.8"/>
<path opacity="0.69" fill="#F7FCFF" d="M155.3,153.4c-0.8-1.1-1.8-2.1-3.3-2.5c-5.3-1.7-12.3-15.8-12.3-15.8s-4.7-2.5-4.7,0.2
	s-13.7,3.7-18.3,4c-1.3,0.1-2.5,0.1-3.6,0.1c-0.7,1.4-1.1,2.8-1.1,4.3c0,8.1,11,14.8,24.7,14.8C144.1,158.5,150.8,156.5,155.3,153.4
	z"/>
<circle fill="#E2EAEE" cx="136.4" cy="130.6" r="9.3"/>
<path fill="#D3DCE0" d="M140.6,122.3c1.3,2.2,2.1,5,2.1,8c0,3.4-1,6.5-2.6,8.7c3.3-1.4,5.6-4.7,5.6-8.5
	C145.7,127,143.6,123.9,140.6,122.3z"/>
<path fill="#E3F3FE" d="M112.5,69c0,0,3.2,5.1,2.3,11.6c-0.8,6.2-4.5,19.9-4.9,23.2c-0.7,5.3-1.8,15.8,7.1,21.5
	c6.8,4.3,14.2,5.7,19.9,5.7s15.5-1.9,20.3-6.3c5.8-5.4,6.6-10.3,6.5-14.4c-0.3-11.5-4.4-24.9-5.2-28.5c-0.7-3.2,2.1-10.5,2.1-10.5
	l-12.2-6.2l-20.5,1.8L112.5,69z"/>
<path fill="#512A10" d="M116.3,72.1c0,0,3.1,9.6,2.4,14.9c-0.7,5.1-3.7,16.2-4,18.8c-0.6,4.3-1.4,12.8,5.8,17.4
	c5.5,3.5,11.5,4.6,16.1,4.6s12.6-1.5,16.4-5.1c4.7-4.4,5.3-8.3,5.3-11.7c-0.2-9.3-3.6-20.2-4.2-23.1c-0.5-2.6,2.8-16.4,2.8-16.4
	l-11,2.8l-16.6,1.5L116.3,72.1z"/>
<ellipse fill="#E2EAEE" cx="136.9" cy="69" rx="24.4" ry="9.6"/>
<g id="Isolation_Mode">
</g>
<ellipse fill="#E3F3FE" cx="75.7" cy="146.7" rx="47.7" ry="30.7"/>
<ellipse opacity="0.86" fill="#F7FCFF" cx="76.7" cy="146.2" rx="35" ry="18.8"/>
<polygon fill="#D7C999" points="106,134.5 46,120.3 46,147 106,161.3 "/>
<path fill="#E8D9B4" d="M82.5,99.5l23.5,35l-60-14.2c0,0,5.5-6,14.3-12.2C69.2,102,82.5,99.5,82.5,99.5z"/>
<polygon fill="#653819" points="46,137.3 106,151.5 106,145.3 46,131 "/>
<ellipse transform="matrix(-0.8542 -0.5199 0.5199 -0.8542 85.3873 250.1948)" fill="#422B1A" cx="77.8" cy="113.1" rx="3.7" ry="6.2"/>
<ellipse transform="matrix(0.4444 -0.8958 0.8958 0.4444 -64.1858 138.7598)" fill="#422B1A" cx="79.8" cy="121.1" rx="3.7" ry="6.2"/>
<ellipse transform="matrix(-0.1187 -0.9929 0.9929 -0.1187 -41.3472 201.552)" fill="#422B1A" cx="68.8" cy="119.1" rx="3.7" ry="6.2"/>
<ellipse transform="matrix(-0.8542 -0.5199 0.5199 -0.8542 85.9072 248.3406)" fill="#653818" cx="77.8" cy="112.1" rx="3.7" ry="6.2"/>
<ellipse transform="matrix(-0.1187 -0.9929 0.9929 -0.1187 -40.3542 200.4333)" fill="#653818" cx="68.8" cy="118.1" rx="3.7" ry="6.2"/>
<ellipse opacity="0.73" fill="#F5FBFF" cx="136.8" cy="69" rx="23.3" ry="8.9"/>
<ellipse fill="#653819" cx="136.6" cy="71.6" rx="20.3" ry="6.4"/>
<ellipse transform="matrix(0.4444 -0.8958 0.8958 0.4444 -63.29 138.2042)" fill="#653818" cx="79.8" cy="120.1" rx="3.7" ry="6.2"/>
</svg>
