<?xml version="1.0" encoding="utf-8"?>
<!-- Generator: Adobe Illustrator 17.1.0, SVG Export Plug-In . SVG Version: 6.00 Build 0)  -->
<!DOCTYPE svg PUBLIC "-//W3C//DTD SVG 1.1//EN" "http://www.w3.org/Graphics/SVG/1.1/DTD/svg11.dtd">
<svg version="1.1" id="Layer_1" xmlns="http://www.w3.org/2000/svg" xmlns:xlink="http://www.w3.org/1999/xlink" x="0px" y="0px"
	 viewBox="452.4 -2196 174.9 143.6" enable-background="new 452.4 -2196 174.9 143.6" xml:space="preserve">
<g id="Layer_1_1_">
	<ellipse fill="#E3F3FE" cx="577.1" cy="-2096.5" rx="26.6" ry="15.9"/>
	<path opacity="0.69" fill="#F7FCFF" enable-background="new    " d="M597.1-2086.2c-0.9-1.2-1.9-2.3-3.6-2.7
		c-5.7-1.8-13.3-17-13.3-17s-5.1-2.7-5.1,0.2c0,2.9-14.8,4-19.7,4.3c-1.4,0.1-2.7,0.1-3.9,0.1c-0.8,1.5-1.2,3-1.2,4.6
		c0,8.7,11.9,15.9,26.6,15.9C585-2080.7,592.3-2082.8,597.1-2086.2z"/>
	<circle fill="#E2EAEE" cx="576.7" cy="-2110.7" r="10"/>
	<path fill="#D3DCE0" d="M581.3-2119.7c1.4,2.4,2.3,5.4,2.3,8.6c0,3.7-1.1,7-2.8,9.4c3.6-1.5,6-5.1,6-9.2
		C586.8-2114.6,584.5-2118,581.3-2119.7z"/>
	<path fill="#E2EAEE" d="M599.1-2162c0.2-0.2,4.5-6.6,5.3-6.6s7.9-5.4,4.8,5.2c-1.5,5.4-0.3,14-2.7,16.9s-10.8,2.4-10.8,2.4v4.7
		c0,0,5.7,0.8,7.5-0.1c1.8-1,7.3-3.6,8.6-6.9c1.3-3.3-0.3-6.7,0-11.1c0.3-4.4,3.6-10.8,0.5-14.9c-3-4-7.3-0.8-9.3,0.3
		c-1.8,1-8.1,7.9-8.1,7.9L599.1-2162z"/>
	<path fill="#E3F3FE" d="M551-2177c0,0,3.4,5.5,2.5,12.5c-0.9,6.7-4.8,21.4-5.3,25c-0.8,5.7-1.9,17,7.6,23.2
		c7.3,4.6,15.3,6.1,21.4,6.1s16.7-2,21.9-6.8c6.2-5.8,7.1-11.1,7-15.5c-0.3-12.4-4.7-26.8-5.6-30.7c-0.8-3.4,2.3-11.3,2.3-11.3
		l-13.1-6.7l-22.1,1.9L551-2177z"/>
	<g id="XMLID_1_">
		<g>
			<path fill="#A5856F" d="M600.3-2131.9c0.1,3.6-0.5,7.9-5.7,12.6c-4.1,3.9-12.7,5.5-17.7,5.5c-5.1,0-11.4-1.2-17.3-5
				c-7.8-5-6.8-14.1-6.2-18.7c0.3-2.8,3.6-14.8,4.3-20.3c0.8-5.7-2.6-16.1-2.6-16.1l13.9,4.1l17.9-1.6l11.9-3c0,0-3.6,14.9-3,17.7
				C596.5-2153.5,600.1-2141.9,600.3-2131.9z"/>
		</g>
	</g>
	<g opacity="0.62">
		<path fill="#E8D9B4" d="M557.8-2158.4c0,0,5.9,2.2,11.2,2.6c10.2,0.9,16.7-0.8,22.2-1.6c1.2-0.2,4.7-1,4.7-1
			c0.3-4.7,3-16.1,3-16.1l-11.9,3l-17.9,1.6l-13.9-4.1C555.1-2173.8,558.2-2164.1,557.8-2158.4z"/>
	</g>
	<ellipse fill="#E2EAEE" cx="577.3" cy="-2177" rx="26.3" ry="10.3"/>
	<ellipse fill="#E3F3FE" cx="511.3" cy="-2093.4" rx="51.4" ry="33.1"/>
	<ellipse opacity="0.86" fill="#F7FCFF" enable-background="new    " cx="512.4" cy="-2093.9" rx="37.7" ry="20.3"/>
	<polygon fill="#D7C999" points="544,-2106.5 479.3,-2121.8 479.3,-2093.1 544,-2077.7 	"/>
	<path fill="#E8D9B4" d="M518.7-2144.3l25.3,37.7l-64.6-15.3c0,0,5.9-6.5,15.4-13.1C504.3-2141.6,518.7-2144.3,518.7-2144.3z"/>
	<polygon fill="#653819" points="479.3,-2103.5 544,-2088.2 544,-2094.9 479.3,-2110.3 	"/>
	
		<ellipse transform="matrix(-0.5199 0.8542 -0.8542 -0.5199 -1038.3077 -3675.4512)" fill="#422B1A" cx="513.7" cy="-2129.5" rx="6.7" ry="4"/>
	
		<ellipse transform="matrix(-0.8958 -0.4444 0.4444 -0.8958 1920.4128 -3791.717)" fill="#422B1A" cx="515.8" cy="-2120.9" rx="6.7" ry="4"/>
	
		<ellipse transform="matrix(-0.9929 0.1187 -0.1187 -0.9929 752.2865 -4290.9595)" fill="#422B1A" cx="503.9" cy="-2123.1" rx="6.7" ry="4"/>
	
		<ellipse transform="matrix(-0.5199 0.8542 -0.8542 -0.5199 -1039.2281 -3677.0886)" fill="#653818" cx="513.7" cy="-2130.6" rx="6.7" ry="4"/>
	
		<ellipse transform="matrix(-0.9929 0.1187 -0.1187 -0.9929 752.1587 -4293.1064)" fill="#653818" cx="503.9" cy="-2124.2" rx="6.7" ry="4"/>
	<ellipse opacity="0.73" fill="#F5FBFF" enable-background="new    " cx="577.2" cy="-2177" rx="25.1" ry="9.6"/>
	<ellipse fill="#E8D9B4" cx="577" cy="-2174.3" rx="21.9" ry="6.9"/>
	
		<ellipse transform="matrix(-0.8958 -0.4444 0.4444 -0.8958 1920.8917 -3793.76)" fill="#653818" cx="515.8" cy="-2122" rx="6.7" ry="4"/>
	<path opacity="0.15" fill="#653819" enable-background="new    " d="M600.1-2134.9c-6.7,4.1-16.8,5.8-23.3,5.8
		c-6.9,0-15.5-1.5-23.8-6.1c-0.4,5-0.1,12.3,6.5,16.4c5.9,3.8,12.4,5,17.3,5c5.1,0,13.6-1.6,17.7-5.5c5.1-4.7,5.7-8.9,5.7-12.6
		C600.3-2132.8,600.2-2133.8,600.1-2134.9z"/>
</g>
</svg>
