<?xml version="1.0" encoding="utf-8"?>
<!-- Generator: Adobe Illustrator 17.1.0, SVG Export Plug-In . SVG Version: 6.00 Build 0)  -->
<!DOCTYPE svg PUBLIC "-//W3C//DTD SVG 1.1//EN" "http://www.w3.org/Graphics/SVG/1.1/DTD/svg11.dtd">
<svg version="1.1" id="Layer_1" xmlns="http://www.w3.org/2000/svg" xmlns:xlink="http://www.w3.org/1999/xlink" x="0px" y="0px"
	 viewBox="0 0 200 200" enable-background="new 0 0 200 200" xml:space="preserve">
<g id="Isolation_Mode">
</g>
<path fill="#404C66" d="M129.9,154.1c3.3,8.6,0.4,17.1-6,20.2c-7.8,3.8-14.7-2.4-18-11c-3.3-8.6-2.8-16.5,6-20.2
	C118.4,140.3,126.6,145.5,129.9,154.1z"/>
<ellipse transform="matrix(0.8692 -0.4944 0.4944 0.8692 -53.3026 42.3261)" fill="#404C66" cx="53.4" cy="121.9" rx="13.4" ry="16.7"/>
<ellipse transform="matrix(0.8692 -0.4944 0.4944 0.8692 -55.1567 41.5562)" fill="#8590AA" cx="51" cy="125" rx="9.6" ry="14.7"/>
<ellipse transform="matrix(0.8692 -0.4944 0.4944 0.8692 -65.0806 78.0402)" fill="#8590AA" cx="115" cy="162" rx="9.6" ry="14.7"/>
<ellipse transform="matrix(0.8692 -0.4944 0.4944 0.8692 -65.0486 78.093)" fill="#C0C6CE" cx="115.1" cy="162" rx="5.9" ry="9.1"/>
<ellipse transform="matrix(0.8692 -0.4944 0.4944 0.8692 -55.1247 41.609)" fill="#C0C6CE" cx="51.1" cy="125" rx="5.9" ry="9.1"/>
<path fill="#FFD17C" d="M137.9,105c0,0,11,7,16.3,11.1s20.3,14.9,21,19.9s0.8,8.8-1.1,10.7S135.5,172,135.5,172l-4.6-13.3
	l-16.3-15.9l-13-8.3l-3-4.9l38.5-24.8H137.9z"/>
<path fill="#FFD17C" d="M133.1,91.3c0,0,0.1-7-19.8-15.4S94.9,69,94.9,69s-8.8-2.2-15.3,1c-8.7,4.2-37.9,23.6-37.9,23.6L73.4,113H90
	L133.1,91.3z"/>
<path fill="#FFC25C" d="M102.2,128.5c0,0-6.2-16.5-8.5-19c-2.3-2.5-16.2-11.2-24.5-14.7s-20-8.6-27.4-1.4c-4.3,4.2-4.7,6.7-5.1,7.1
	c-1.4,1.5-2.9,2-4.3,4.4c-2,3.3-3,5,1.2,9.2s5.9,3,5.9,3s3.1-7,6.1-7.8c3.9-1,10.4,2.7,13.9,6.1c2,2,5.7,6.2,5.6,17.2
	c0,1.1,38.8,23,38.8,23s0.5-9.6,6.7-9.3c7.1,0.4,12.4,5.9,15,11c1.9,3.7,1.4,11.2,1.4,11.2l8.5,3.4l0.4-14.1c0,0,0.1-5.4-5.5-9.5
	C124.1,143.8,102.2,128.5,102.2,128.5z"/>
<path fill="#ACC9E5" d="M63,98v11l-18-9.8c0,0,1.2-4,4.3-4.2C52.5,94.8,63,98,63,98z"/>
<path fill="#ACC9E5" d="M67,100v11l28.5,16c0,0-3.5-13.5-5.8-15.9C87.3,108.8,67.7,98.8,67,100z"/>
<polygon fill="#C4DBF6" points="94.3,110.8 132.7,89.6 137.9,105 102.2,128.5 "/>
<ellipse transform="matrix(0.9769 0.2137 -0.2137 0.9769 34.3212 -32.8601)" fill="#8590AA" cx="169.1" cy="142.3" rx="2.7" ry="3.7"/>
<ellipse transform="matrix(0.9769 0.2137 -0.2137 0.9769 37.3564 -26.5657)" fill="#8590AA" cx="141.5" cy="159.5" rx="3" ry="4.3"/>
<rect x="140" y="150.3" transform="matrix(0.8455 -0.534 0.534 0.8455 -57.0772 106.3416)" fill="#8590AA" width="30.3" height="3"/>
<polygon fill="#404C66" points="163.8,150.2 150,158.5 150,152.3 163.9,143.5 "/>
<polygon fill="#8590AA" points="72,118.9 67,116 66.9,113.6 72,116.7 "/>
</svg>
