<?xml version="1.0" encoding="utf-8"?>
<!-- Generator: Adobe Illustrator 17.1.0, SVG Export Plug-In . SVG Version: 6.00 Build 0)  -->
<!DOCTYPE svg PUBLIC "-//W3C//DTD SVG 1.1//EN" "http://www.w3.org/Graphics/SVG/1.1/DTD/svg11.dtd">
<svg version="1.1" id="Layer_1" xmlns="http://www.w3.org/2000/svg" xmlns:xlink="http://www.w3.org/1999/xlink" x="0px" y="0px"
	 viewBox="0 0 200 200" enable-background="new 0 0 200 200" xml:space="preserve">
<ellipse fill="#F8FCFF" cx="103.9" cy="148.2" rx="51.4" ry="29.9"/>
<ellipse transform="matrix(0.9973 -7.278458e-002 7.278458e-002 0.9973 -10.4715 7.872)" fill="#E4EAEF" cx="102.8" cy="147.6" rx="29.5" ry="14.9"/>
<path fill="#E4EAEF" d="M144,99.8c0,0,4.1-3.5,7.6-1.5c3.6,2,6.1,4.5,0.8,14.2c-5.3,9.6-7.7,15.4-13.7,17.5
	c-6.1,2.2-3.1-5.6-3.1-5.6l2.9-6.1c0,0,5.2,1,7.3-2.6c2.1-3.6,2.9-6.9,3.3-9.1c0.4-2.1,0.4-3.3-1.5-1.8c-1.9,1.4-4.6,8.6-5.4,8.5
	c-0.9-0.1-0.8-8.5-0.8-8.5L144,99.8z"/>
<path fill="#F2F6F9" d="M144.6,104.9c1,2.2-4.1,21.6-7.7,29.9c-3.5,8-8.7,13.3-10.2,14.6c-5.3,4.8-12.9,8.6-21.2,8.6
	c-7.9,0-17.5-0.9-23-4.6c-6-4.1-7.7-7.2-11.5-16.3c-5.2-12.4-8-30.1-8-30.1l23-18.7l23.2-3L144.6,104.9z"/>
<ellipse fill="#F8FCFF" cx="103.6" cy="103.9" rx="40.9" ry="23.8"/>
<ellipse fill="#511E0C" cx="103.7" cy="108.9" rx="36.5" ry="17.2"/>
<path fill="#936B5F" d="M108,120.3c-15.4,0-27.9-7.1-27.9-15.9c0-2,0.6-3.8,1.8-5.6c-5.6,2.4-9.1,5.8-9.1,9.7
	c0,7.3,12.5,13.1,27.9,13.1c5.1,0,9.8-0.6,13.9-1.8C112.5,120.1,110.3,120.3,108,120.3z"/>
<g id="Isolation_Mode">
</g>
</svg>
