<?xml version="1.0" encoding="utf-8"?>
<!-- Generator: Adobe Illustrator 17.1.0, SVG Export Plug-In . SVG Version: 6.00 Build 0)  -->
<!DOCTYPE svg PUBLIC "-//W3C//DTD SVG 1.1//EN" "http://www.w3.org/Graphics/SVG/1.1/DTD/svg11.dtd">
<svg version="1.1" id="Layer_1" xmlns="http://www.w3.org/2000/svg" xmlns:xlink="http://www.w3.org/1999/xlink" x="0px" y="0px"
	 viewBox="0 0 200 200" enable-background="new 0 0 200 200" xml:space="preserve">
<g>
	<path fill="#B23850" d="M52.3,95.9c0,0,4.3,44.1,5.7,56.8c0.2,1.8,4.5,11.9,22.1,10c17.5-1.9,18.2-9.4,18.2-9.4l5-57.5H52.3z"/>
	<path fill="#C9CFD3" d="M103.4,95.6c0,10.6-11.4,15.4-25.5,15.4s-25.5-4-25.5-15.4s11.4-15.4,25.5-15.4S103.4,84.3,103.4,95.6z"/>
	<ellipse fill="#E4EAEF" cx="77.8" cy="93.4" rx="25.5" ry="14.4"/>
	<g>
		<defs>
			<path id="SVGID_1_" d="M52.3,95.9c0,0,4.3,44,5.7,56.7c0.2,1.8,4.5,11.9,22.1,10.1c17.5-1.9,18.2-9.5,18.2-9.5l5-57.6L52.3,95.9z
				"/>
		</defs>
		<clipPath id="SVGID_2_">
			<use xlink:href="#SVGID_1_"  overflow="visible"/>
		</clipPath>
		<path clip-path="url(#SVGID_2_)" fill="#E4EAEF" d="M57.4,147.1c0,0,3.7,1.4,12.6-3.5c8.9-4.9,9.1-9,10.1-12.8
			c1.7-6.4,0.7-7.3,6.1-13.2s16.7-13.8,22.3-12.5c5.6,1.3,5.8,11.3,5.8,11.7s0,7,0,7l-12.4-2.4c0,0-7.8,3.6-10.5,10.5
			c-4.1,10.8-7.2,16.6-14.4,19.7s-20.5,2.9-20.5,2.9L57.4,147.1z"/>
		<path clip-path="url(#SVGID_2_)" fill="#E4EAEF" d="M57.4,147.1c0,0,3.7,1.4,12.6-3.5c8.9-4.9,9.1-9,10.1-12.8
			c1.7-6.4,0.7-7.3,6.1-13.2s16.7-13.8,22.3-12.5c5.6,1.3,5.8,11.3,5.8,11.7s0,7,0,7l-12.4-2.4c0,0-7.8,3.6-10.5,10.5
			c-4.1,10.8-7.2,16.6-14.4,19.7s-20.5,2.9-20.5,2.9L57.4,147.1z"/>
	</g>
	<path fill="#8590AA" d="M93.4,47.4l-0.2-0.2c-0.5-0.4-1.3-0.3-1.8,0.1L77.1,61.6c-0.2,0.2-0.3,0.5-0.3,0.8c0,0.1-0.1,0.2-0.1,0.3
		v32.2c0,0.6,0.6,1.1,1.3,1.1h0.3c0.7,0,1.3-0.5,1.3-1.1c0,0-0.3-31.1,0-32c0.8-2.2,13.9-13.9,13.9-13.9
		C94,48.4,93.9,47.8,93.4,47.4z"/>
</g>
<polygon fill="#968475" points="86.4,134.9 137,111.2 149.3,117.9 104.5,143.5 "/>
<g>
	<polygon fill="#FFD17C" points="116.6,78.5 120,81.3 119.9,132.1 116.2,130.7 	"/>
	<polygon fill="#FFC25C" points="123.8,79.5 123.1,130 119.9,132.1 120,81.3 	"/>
	<polygon fill="#F7E2A2" points="120.6,77 123.8,79.5 120,81.3 116.6,78.5 	"/>
</g>
<g>
	<polygon fill="#FFD17C" points="133.5,76 136.8,78.9 134.8,129.7 131.2,128.1 	"/>
	<polygon fill="#FFC25C" points="140.7,77.3 138,127.7 134.8,129.7 136.8,78.9 	"/>
	<polygon fill="#F7E2A2" points="137.6,74.7 140.7,77.3 136.8,78.9 133.5,76 	"/>
</g>
<g>
	<polygon fill="#FFD17C" points="106.6,97.2 110.3,99 117.4,139.7 113.6,139 	"/>
	<polygon fill="#FFC25C" points="113.9,97.2 120.2,137.7 117.4,139.7 110.3,99 	"/>
	<polygon fill="#F7E2A2" points="110.3,95.5 113.9,97.2 110.3,99 106.6,97.2 	"/>
</g>
<g>
	<polygon fill="#FFD17C" points="106.6,78.4 110.3,80.7 117.4,131 113.6,130.1 	"/>
	<polygon fill="#FFC25C" points="113.9,78.4 120.2,128.5 117.4,131 110.3,80.7 	"/>
	<polygon fill="#F7E2A2" points="110.3,76.4 113.9,78.4 110.3,80.7 106.6,78.4 	"/>
</g>
<g>
	<polygon fill="#FFD17C" points="124.8,72.5 128.4,75 132.6,125.6 128.8,124.5 	"/>
	<polygon fill="#FFC25C" points="132.1,72.9 135.5,123.3 132.6,125.6 128.4,75 	"/>
	<polygon fill="#F7E2A2" points="128.7,70.7 132.1,72.9 128.4,75 124.8,72.5 	"/>
</g>
<g>
	<polygon fill="#FFD17C" points="120.1,86.8 123.9,88.7 131,129.4 127.1,128.6 	"/>
	<polygon fill="#FFC25C" points="127.4,86.8 133.8,127.3 131,129.4 123.9,88.7 	"/>
	<polygon fill="#F7E2A2" points="123.9,85.2 127.4,86.8 123.9,88.7 120.1,86.8 	"/>
</g>
<g>
	<polygon fill="#FFD17C" points="137.1,83.9 140,87.1 132.7,137.4 129.3,135.5 	"/>
	<polygon fill="#FFC25C" points="144.1,86 136.1,135.8 132.7,137.4 140,87.1 	"/>
	<polygon fill="#F7E2A2" points="141.2,83 144.1,86 140,87.1 137.1,83.9 	"/>
</g>
<g>
	<polygon fill="#FFD17C" points="123.9,96.3 127.3,98.8 127,140.1 123.3,138.7 	"/>
	<polygon fill="#FFC25C" points="131.1,97.6 130.1,138.6 127,140.1 127.3,98.8 	"/>
	<polygon fill="#F7E2A2" points="127.9,95.3 131.1,97.6 127.3,98.8 123.9,96.3 	"/>
</g>
<g>
	<polygon fill="#FFD17C" points="98.7,87.1 102.6,89.1 114.4,138.5 110.4,138 	"/>
	<polygon fill="#FFC25C" points="105.9,86.5 116.9,135.7 114.4,138.5 102.6,89.1 	"/>
	<polygon fill="#F7E2A2" points="102.2,84.8 105.9,86.5 102.6,89.1 98.7,87.1 	"/>
</g>
<g>
	<polygon fill="#FFD17C" points="83.4,98.2 87.5,99.6 106.1,146.9 102.1,146.9 	"/>
	<polygon fill="#FFC25C" points="90.4,96.6 108.3,143.8 106.1,146.9 87.5,99.6 	"/>
	<polygon fill="#F7E2A2" points="86.5,95.4 90.4,96.6 87.5,99.6 83.4,98.2 	"/>
</g>
<g>
	<polygon fill="#FFD17C" points="97,97.6 100.8,99.8 107.9,150.2 104,149.2 	"/>
	<polygon fill="#FFC25C" points="104.3,97.6 110.7,147.6 107.9,150.2 100.8,99.8 	"/>
	<polygon fill="#F7E2A2" points="100.8,95.5 104.3,97.6 100.8,99.8 97,97.6 	"/>
</g>
<g>
	<polygon fill="#FFD17C" points="108,104.7 111.3,107.6 109.3,158.4 105.7,156.8 	"/>
	<polygon fill="#FFC25C" points="115.2,106 112.5,156.4 109.3,158.4 111.3,107.6 	"/>
	<polygon fill="#F7E2A2" points="112.1,103.4 115.2,106 111.3,107.6 108,104.7 	"/>
</g>
<g>
	<polygon fill="#FFD17C" points="117.8,101.3 121.3,103.6 123.6,144.8 119.8,143.6 	"/>
	<polygon fill="#FFC25C" points="125,102.2 126.6,143.1 123.6,144.8 121.3,103.6 	"/>
	<polygon fill="#F7E2A2" points="121.7,100.1 125,102.2 121.3,103.6 117.8,101.3 	"/>
</g>
<polygon fill="#BFAD9D" points="104.5,143.5 110.7,178 143.2,159.5 149.3,117.9 "/>
<polygon fill="#B19D8E" points="104.5,143.5 110.7,178 92.3,168.8 86.4,134.9 "/>
<g id="Isolation_Mode">
</g>
</svg>
