<?xml version="1.0" encoding="utf-8"?>
<!-- Generator: Adobe Illustrator 17.1.0, SVG Export Plug-In . SVG Version: 6.00 Build 0)  -->
<!DOCTYPE svg PUBLIC "-//W3C//DTD SVG 1.1//EN" "http://www.w3.org/Graphics/SVG/1.1/DTD/svg11.dtd">
<svg version="1.1" id="Layer_1" xmlns="http://www.w3.org/2000/svg" xmlns:xlink="http://www.w3.org/1999/xlink" x="0px" y="0px"
	 viewBox="0 0 200 200" enable-background="new 0 0 200 200" xml:space="preserve">
<polygon fill="#968475" points="33,65.1 37,66.7 37,122.6 33,120.1 "/>
<polygon fill="#B09B8C" points="37,66.7 41,64.9 41,120.2 37,122.6 "/>
<polygon fill="#BFAD9D" points="33,65.1 33.2,65.1 37,63.2 41,64.9 37,66.7 "/>
<polygon fill="#968475" points="168,121 168,146.6 172,149.1 172,121 "/>
<polygon fill="#968475" points="77,43.9 81,45.4 81,96 77,93.6 "/>
<polygon fill="#B09B8C" points="81,45.4 85,43.7 85,93.6 81,96 "/>
<polygon fill="#BFAD9D" points="76.8,43.9 76.9,43.8 80.8,42 84.8,43.7 80.8,45.4 "/>
<polygon fill="#968475" points="123,119.6 127,121.1 127,177 123,174.5 "/>
<polygon fill="#B09B8C" points="127,121.1 131,119.4 131,174.6 127,177 "/>
<polygon fill="#B09B8C" points="41,70.5 81,48.8 81,108 41,105.5 "/>
<polygon fill="#FFFBD2" points="123.2,119.6 123.4,119.5 127.2,117.6 131.2,119.4 127.2,121.1 "/>
<polygon fill="#B19D8E" points="127,151.2 176,120.3 176,134.7 127,166.4 "/>
<polygon fill="#968475" points="127,151.5 37,98.4 37,112 127,166.4 "/>
<polygon fill="#BFAD9D" points="87.1,77.8 176.3,120.3 127.2,151.5 37,98.4 74.5,72.2 "/>
<polygon fill="#E6F3FF" points="127.3,141.6 172.5,113.9 172.4,120.3 127.2,149.1 "/>
<polygon fill="#A6C4E2" points="127.3,141.6 40,90.1 39.9,96.4 127.2,149.1 "/>
<polygon fill="#C4DBF6" points="172.5,113.9 82.8,64.4 40,90.1 127.3,141.6 "/>
<polygon fill="#B19D8E" points="172,125 172,149.1 176,146.7 176,125 "/>
<path fill="#E7E3D4" d="M43.3,83.4c0,0,6.3,2,9.6,4.6c3.3,2.7,6.3,6.9,6.3,6.9s8.6-6.2,16.6-11.5s18.2-9,18.2-9s-5.6-3.3-9.6-5.9
	c-4-2.7-5-4.6-5-4.6s-13.9,2.7-17.9,5.6C57.5,72.5,43.3,83.4,43.3,83.4z"/>
<g id="Isolation_Mode">
</g>
</svg>
