<?xml version="1.0" encoding="utf-8"?>
<!-- Generator: Adobe Illustrator 17.1.0, SVG Export Plug-In . SVG Version: 6.00 Build 0)  -->
<!DOCTYPE svg PUBLIC "-//W3C//DTD SVG 1.1//EN" "http://www.w3.org/Graphics/SVG/1.1/DTD/svg11.dtd">
<svg version="1.1" id="Layer_1" xmlns="http://www.w3.org/2000/svg" xmlns:xlink="http://www.w3.org/1999/xlink" x="0px" y="0px"
	 viewBox="0 0 200 200" enable-background="new 0 0 200 200" xml:space="preserve">
<g id="Isolation_Mode">
</g>
<polygon fill="#B23850" points="89.4,157.3 112.5,156.2 111.9,175.1 89,177 "/>
<polygon fill="#C65571" points="107.5,152 112.5,156.2 89.4,157.3 85.4,153.4 "/>
<polygon fill="#912740" points="85.4,173 85.4,153.4 89.6,157.3 89,177 "/>
<path fill="#C65571" d="M71,60.6v24.2c0,0,11.1-7.4,18-6.9c7,0.5,21,0,22.8,10.6c1.8,10.6-7.5,20.1-14.4,23.8s-7,3.6-8.7,4.5
	c-2.4,1.3-2.2,0.6-1.9,4.5c0.2,2.4,0.3,19.6,0.3,19.6L108,141v-14.6c0,0,0.9-3.8,3-4.7c2.1-0.9,13.2-6.7,21.2-19.7
	c7.9-13,9.5-25.2,4.6-31.5c-3.7-4.7-12.2-13.9-27.7-14.7C93.7,55.2,71,60.6,71,60.6z"/>
<polygon fill="#912740" points="86.6,118.4 91.8,121.5 90.3,145.2 85.9,141.6 "/>
<path fill="#B23850" d="M75.5,63.6v24.8c0,0,16.4-9.7,23.4-9.2c7,0.5,16.7,1.5,18.4,12.1c1.8,10.6-8.4,20.8-15.4,24.4
	c-6.9,3.7-8.5,3.8-9.1,4.2c-1.8,1-2.2,0.9-2.3,3.9c0,2.4-0.3,21.3-0.3,21.3l22.2-1.2c0,0-0.4-11,0-14.6c0.2-1.4,0.9-3.8,3-4.7
	c2.1-0.9,13.2-6.7,21.2-19.7c7.9-13,5.8-23.6,2.4-30.7c-3.1-6.5-10-14.6-25.4-15.4C98.2,58.2,75.5,63.6,75.5,63.6z"/>
<polygon fill="#912740" points="75.5,63.6 71,60.6 71,85.5 75.5,88.4 "/>
</svg>
