<?xml version="1.0" encoding="utf-8"?>
<!-- Generator: Adobe Illustrator 17.1.0, SVG Export Plug-In . SVG Version: 6.00 Build 0)  -->
<!DOCTYPE svg PUBLIC "-//W3C//DTD SVG 1.1//EN" "http://www.w3.org/Graphics/SVG/1.1/DTD/svg11.dtd">
<svg version="1.1" id="Layer_1" xmlns="http://www.w3.org/2000/svg" xmlns:xlink="http://www.w3.org/1999/xlink" x="0px" y="0px"
	 viewBox="0 0 200 200" enable-background="new 0 0 200 200" xml:space="preserve">
<polygon fill="#B23850" points="124,141 57.5,134.7 57,46.5 124,22.5 "/>
<polygon fill="#E4EAEF" points="125,146.8 63,135 63,47.5 125,25.3 "/>
<path fill="#B23850" d="M117.1,176.6L61.5,142c-2.5-1.6-4-4.3-4-7.3V47c0-0.7,0.7-1.1,1.3-0.7l57.5,32.7c3.9,2.2,6.3,6.3,6.3,10.8
	v83.9C122.5,176.4,119.4,178.1,117.1,176.6z"/>
<path fill="#E4EAEF" d="M71.1,109.9l39.9,21.6c1,0.5,1.6-0.4,1.3-1.8c-2.8-11.4-6-22.2-18.8-30.9c0-0.2,0-0.3,0-0.5
	c-0.2-2.6,2-3.2-2.5-6.5c-3.4-1.3-4.3-0.3-4,2.4c0,0.2,0.1,0.4,0.1,0.6c-9.9-4.5-17,0.2-18.5,10.9C68.5,106.9,69.7,109.2,71.1,109.9
	z"/>
<path fill="#E4EAEF" d="M112.1,137.1c-0.5,0.8-1.6,1-2.6,0.5l-40.9-23.4c-1-0.5-1.3-1.7-0.9-2.5l0.1-0.1c0.5-0.8,1.5-0.9,2.5-0.3
	l40.9,23.4c1,0.5,1.4,1.5,1,2.3L112.1,137.1z"/>
<g id="Isolation_Mode">
</g>
</svg>
