<?xml version="1.0" encoding="utf-8"?>
<!-- Generator: Adobe Illustrator 17.1.0, SVG Export Plug-In . SVG Version: 6.00 Build 0)  -->
<!DOCTYPE svg PUBLIC "-//W3C//DTD SVG 1.1//EN" "http://www.w3.org/Graphics/SVG/1.1/DTD/svg11.dtd">
<svg version="1.1" id="Layer_1" xmlns="http://www.w3.org/2000/svg" xmlns:xlink="http://www.w3.org/1999/xlink" x="0px" y="0px"
	 viewBox="0 0 200 200" enable-background="new 0 0 200 200" xml:space="preserve">
<path fill="#B23850" d="M51.4,105.9c0,0,55-30.5,56.1-30.9c1.2-0.4,42.9,23.1,42.9,23.1l-13.2,44.3c0,0-63.3,13.9-62.2,12.7
	C76,153.8,51.4,105.9,51.4,105.9z"/>
<polygon fill="#912740" points="54.1,127.7 59.8,157.8 95.4,178 95.2,145.2 "/>
<polygon fill="#B23850" points="147.7,118.8 141.9,148.3 95.4,178 95.2,145.2 147.7,115.2 "/>
<path fill="#912740" d="M63.7,122c11.7-7.2,29.9-18.4,37.9-23.4c2.4-1.5,5.5-1.5,7.9,0.1l19.8,13c3.9,2.6,4.5,8.2,1.1,11.4
	c-2.8,2.7-5.5,5.2-6.2,5.3c-1.2,0.2-22.4,13.1-31.2,18.5c-2.3,1.4-5.1,1.4-7.5,0.1l-21.6-12.4C59.1,131.8,59,124.9,63.7,122z"/>
<path fill="#AD4966" d="M48.9,110.9l2.7,14.9c0,1.5,0.8,2.8,2.1,3.5l40.2,22.4l1.6-13.1L48.9,110.9z"/>
<path fill="#C65571" d="M150.4,102.7l-1.9,13.2c-0.3,1.9-1.4,3.6-3.1,4.6l-51.5,31.2v-14.3L150.4,102.7z"/>
<path fill="#D68099" d="M149.7,96.2l-38.9-22.5c-1.8-1-4-1-5.8,0l-53.9,30.5c-3.9,2.2-4,7.7-0.1,10l39.6,23.9c1.8,1.1,4.1,1.1,6,0
	l53.2-31.8C153.5,104,153.5,98.4,149.7,96.2z M144.4,105.8l-47.8,27.9c-1.7,1-3.7,1-5.4,0l-35.5-21c-3.4-2-3.4-6.9,0.1-8.8
	l48.4-26.7c1.6-0.9,3.6-0.9,5.2,0L144.3,97C147.7,98.9,147.8,103.8,144.4,105.8z"/>
<polygon fill="#5B5B5B" points="77.5,93.7 81.5,91 82.1,58.4 77.5,56 "/>
<path fill="#383838" d="M123.1,122.7l5.1-3.6L127.9,80c0-1.8-1-3.5-2.6-4.4L84,52.2c-1.8-1-4.1-1-5.9,0l-2.6,1.4l2.1,8l9.7,0.7
	l13.8,6.9l16.2,8.2l1.7,11.4c0,0,3.6,13.9,3.6,15.6s-1.7,13.5-1.7,13.5L123.1,122.7z"/>
<path fill="#232323" d="M77.5,93.7l0.8-29.5c0-0.8,0.9-1.3,1.6-1L115,83.4c2.1,1.1,4.1,3,4.1,5.4l0.3,31.5l3.7,2.4l0.6-38.2
	c0-2-1-3.9-2.8-4.9L78.1,53.9c-2.1-1.3-4.9,0.3-4.9,2.8L72.6,92L77.5,93.7z"/>
<g id="Isolation_Mode">
</g>
</svg>
