<?xml version="1.0" encoding="utf-8"?>
<!-- Generator: Adobe Illustrator 17.1.0, SVG Export Plug-In . SVG Version: 6.00 Build 0)  -->
<!DOCTYPE svg PUBLIC "-//W3C//DTD SVG 1.1//EN" "http://www.w3.org/Graphics/SVG/1.1/DTD/svg11.dtd">
<svg version="1.1" id="Layer_1" xmlns="http://www.w3.org/2000/svg" xmlns:xlink="http://www.w3.org/1999/xlink" x="0px" y="0px"
	 viewBox="0 0 600 600" enable-background="new 0 0 600 600" xml:space="preserve">
<path fill="#C0DCF4" stroke="#407BAD" stroke-width="2" stroke-miterlimit="10" d="M301.3,47.2C164.7,47.2,54,157.9,54,294.5
	s110.7,247.3,247.3,247.3S548.5,431,548.5,294.5S437.8,47.2,301.3,47.2z M100,294.5c0-111.2,90.2-201.4,201.4-201.4
	c53.7,0,102.4,21,138.5,55.2L137.8,412C114,378.9,100,338.3,100,294.5z M301.4,495.9c-46.8,0-89.8-16-124-42.7l298-260.2
	c17.4,29.8,27.4,64.5,27.4,101.5C502.8,405.7,412.6,495.9,301.4,495.9z"/>
</svg>
