<?xml version="1.0" encoding="utf-8"?>
<!-- Generator: Adobe Illustrator 17.1.0, SVG Export Plug-In . SVG Version: 6.00 Build 0)  -->
<!DOCTYPE svg PUBLIC "-//W3C//DTD SVG 1.1//EN" "http://www.w3.org/Graphics/SVG/1.1/DTD/svg11.dtd">
<svg version="1.1" id="Слой_1" xmlns="http://www.w3.org/2000/svg" xmlns:xlink="http://www.w3.org/1999/xlink" x="0px" y="0px"
	 viewBox="0 0 39.7 39.7" enable-background="new 0 0 39.7 39.7" xml:space="preserve">
<g>
	<path fill-rule="evenodd" clip-rule="evenodd" fill="#BC3D3D" d="M13,15.8c-0.4,1.8-1.2,4.1-0.3,5.8c1,1.8,4.7,2.3,6.3,3.6
		c3.5,2.9-0.9,9.1-2.1,11.9c0.2-1.2,0.7-2.2,1.1-3.6c0.2-1,0.7-3.1-0.2-4c-0.5-0.5-2.5-0.9-3.3-1.3c-0.9-0.4-2.2-1-2.9-1.6
		c-0.5-0.4-1.5-1.4-1.7-2.4C9.4,21.5,11.8,17.6,13,15.8z"/>
	<path fill-rule="evenodd" clip-rule="evenodd" fill="#BC3D3D" d="M24.2,2.6c-0.1,0.5-0.5,1-0.9,1.6c-0.9,1.4-2.2,3.6-2.4,5.5
		c-0.1,0.7-0.1,1.6,0.2,2.3c0.6,1.7,2.6,3.1,4.2,4.5c1.6,1.3,3.3,2.9,4,4.6c0.3,0.7,0.6,2.1,0.3,3.2c-0.7,2.7-2.6,4.9-4.4,7
		c-1.8,2.1-3.7,4.1-5.7,5.7c-0.1,0.2-0.3,0.2-0.1,0c1.1-1.3,2.3-2.8,3.3-4.5c0.9-1.5,2.7-4.3,2-6.3c-0.4-1-1.7-1.6-2.7-2.4
		c-1-0.8-2-1.7-2.7-2.3c-1.7-1.5-3.7-3.4-4-6.2c-0.2-2.3,1-3.8,2-5.3C19,7.1,21.6,4.7,24.2,2.6z"/>
</g>
</svg>
