<?xml version="1.0" encoding="utf-8"?>
<!-- Generator: Adobe Illustrator 17.1.0, SVG Export Plug-In . SVG Version: 6.00 Build 0)  -->
<!DOCTYPE svg PUBLIC "-//W3C//DTD SVG 1.1//EN" "http://www.w3.org/Graphics/SVG/1.1/DTD/svg11.dtd">
<svg version="1.1" xmlns="http://www.w3.org/2000/svg" xmlns:xlink="http://www.w3.org/1999/xlink" x="0px" y="0px"
	 viewBox="0 0 595.3 841.9" enable-background="new 0 0 595.3 841.9" xml:space="preserve">
<g id="Layer_1">
	
		<image overflow="visible" width="605" height="564" xlink:href="925301EE.jpg"  transform="matrix(-0.6725 0 0 0.6986 104.9939 -453.1214)">
	</image>
	<polygon fill="#8C97AA" points="504.9,399.6 573.1,440.1 530.5,464.2 471,429.5 464.4,423.7 	"/>
	<polygon fill="#5E6F7F" points="530.8,563.3 530.5,464.2 466.8,425.9 474.1,531 	"/>
	<polygon fill="#6F7E93" points="530.5,464.2 530.5,563.3 573.1,539.4 573.1,440.1 	"/>
	<polygon fill="#939EAF" points="530.8,507.5 530.5,563.3 573.1,539.4 573.1,487.6 553.9,512.3 	"/>
	
		<ellipse transform="matrix(-0.8722 -0.4892 0.4892 -0.8722 785.3663 1230.6637)" fill="#FFFFFF" cx="553.5" cy="512.7" rx="7.8" ry="10.7"/>
	
		<ellipse transform="matrix(-0.8722 -0.4892 0.4892 -0.8722 759.791 1252.1968)" fill="#FFFFFF" cx="543.5" cy="526.8" rx="2.2" ry="3"/>
	
		<ellipse transform="matrix(-0.8722 -0.4892 0.4892 -0.8722 771.5833 1283.4148)" fill="#1AAD33" cx="553.5" cy="540.9" rx="2.2" ry="3"/>
	<path fill="#FFFFFF" d="M538.5,473.3v2.5c0,0.5,0.6,0.8,1,0.6l28.6-16.7c0.2-0.1,0.3-0.3,0.3-0.6v-4.5c0-0.5-0.6-0.8-1-0.6
		l-26.7,15.4C539.3,470.2,538.5,471.7,538.5,473.3z"/>
	<path fill="#828FA7" d="M454,577.9c-0.6,8.2-11.6,15-26,15s-26-6.7-26-15c0-22.1,11.6-15,26-15S455.1,562.9,454,577.9z"/>
	<ellipse fill="#939EAF" cx="428" cy="574.1" rx="26" ry="15"/>
	<polygon fill="#5E6F7F" points="419.5,577 419.5,548.3 415.6,548.3 415.6,573.9 	"/>
	<polygon fill="#6F7E93" points="437.1,566.4 437.1,540.4 419.5,548.3 419.5,577 	"/>
	<polyline fill="#828FA7" points="358.5,596.3 497.5,516.3 497.5,392.7 359.3,472.3 358.5,472.8 	"/>
	<polygon fill="#6F7E93" points="351.9,468.8 358.5,472.8 358.5,596.3 351.9,592.4 	"/>
	<polygon fill="#939EAF" points="491.1,388.5 497.5,392.7 358.5,472.8 351.9,468.8 	"/>
	<polygon fill="#E8E3D5" points="492.3,409.8 492.3,503.1 364.3,576.8 364.3,483.8 	"/>
	<path opacity="0.2" fill="#FCFCFC" stroke="#15293F" stroke-width="2" stroke-miterlimit="10" d="M479.5,481.6
		c1.1,1.9,0.5,4.3-1.4,5.4l-88.4,51.6c-1.9,1.1-4.3,0.5-5.4-1.4l0,0c-1.1-1.9-0.5-4.3,1.4-5.4l88.4-51.6
		C476,479.1,478.4,479.7,479.5,481.6L479.5,481.6z"/>
	<path fill="#1AAD33" d="M436,502.8l-50.2,29.7c-1.8,1.1-2.3,3.2-1.1,4.7c1.2,1.5,3.6,1.9,5.4,0.9l46-27.2L436,502.8z"/>
	<g>
		<g>
			<path fill="#BD3452" d="M430.8,496.3c1.2-2.8,0.1-4.2-2.3-5.6c-5.1-2.8-5.4-5.7-0.7-10.7c-1.3,3-0.7,4.8,1.5,6.2
				C434.5,489.6,434.7,490.9,430.8,496.3z"/>
			<path fill="#BD3452" d="M422.3,489.9c1.4,0.8,2.6,1.7,3.9,2.1c2,0.7,2.8,1.8,2,3.9C426.2,493.8,420.3,495.3,422.3,489.9z"/>
		</g>
	</g>
</g>
<g id="Layer_7">
	<g>
		<path fill="#FFFFFF" d="M396.7,340.9l-10.3,8.2c-0.2,0.1-0.3,0.4-0.3,0.6l-0.8,13.3c-0.1,0.8-1.2,1.1-1.6,0.4l-12-20.5
			c-0.3-0.5,0-1.2,0.7-1.3l23.8-2.1C396.9,339.3,397.3,340.3,396.7,340.9z"/>
		<path fill="#FFFFFF" d="M384.5,346.8c0-0.3,0.3-0.4,0.5-0.3c20.8,11.3,46.2,9.1,62.4-7c15.1-15.1,17.7-38,8.2-57.5
			c-0.2-0.4,0.4-0.7,0.6-0.3c14.4,20.8,13.4,48-3.8,65.1c-17.6,17.6-46.3,18.5-67.9,3.6c-0.1-0.1-0.2-0.2-0.2-0.3L384.5,346.8z"/>
	</g>
	<g>
		<path fill="#FFFFFF" d="M343.1,115.5l13.2,0.3c0.2,0,0.5-0.1,0.6-0.3l9.1-9.7c0.6-0.6,1.6-0.1,1.5,0.8l-3.9,23.5
			c-0.1,0.6-0.8,0.9-1.3,0.5L342.7,117C342,116.6,342.3,115.5,343.1,115.5z"/>
		<path fill="#FFFFFF" d="M356.3,118.7c-0.2,0.2-0.5,0.1-0.6-0.1C347,96.7,326,82,303.3,84.1C282,86,265.3,102,260.1,123
			c-0.1,0.4-0.7,0.3-0.7-0.1c2.3-25.2,20.4-45.5,44.6-47.6c24.8-2.2,47.5,15.4,54.5,40.7c0,0.1,0,0.2-0.1,0.3L356.3,118.7z"/>
	</g>
	<g>
		<path fill="#FFFFFF" d="M370,685.9l-10.3,8.2c-0.2,0.1-0.3,0.4-0.3,0.6l-0.8,13.3c-0.1,0.8-1.2,1.1-1.6,0.4l-12-20.5
			c-0.3-0.5,0-1.2,0.7-1.3l23.8-2.1C370.2,684.3,370.6,685.3,370,685.9z"/>
		<path fill="#FFFFFF" d="M357.8,691.8c0-0.3,0.3-0.4,0.5-0.3c20.8,11.3,46.2,9.1,62.4-7c15.1-15.1,17.7-38,8.2-57.5
			c-0.2-0.4,0.4-0.7,0.6-0.3c14.4,20.8,13.4,48-3.8,65.1c-17.6,17.6-46.3,18.5-67.9,3.6c-0.1-0.1-0.2-0.2-0.2-0.3L357.8,691.8z"/>
	</g>
	<g>
		<path fill="#FFFFFF" d="M297.9,535.4l12.5,3.8c0.2,0.1,0.4,0.2,0.5,0.4l5.5,12c0.3,0.8,1.5,0.6,1.6-0.3l3.7-23.5
			c0.1-0.6-0.5-1.1-1.1-0.9l-22.7,6.8C297.1,534.1,297.1,535.2,297.9,535.4z"/>
		<path fill="#FFFFFF" d="M311.3,536.4c-0.1-0.2-0.4-0.3-0.6-0.1c-15.1,18.1-39.4,25.5-60.1,16.5c-19.4-8.4-29.9-28.8-28.2-50.3
			c0-0.4-0.6-0.5-0.7-0.1c-5.8,24.6,4.8,49.5,26.8,59c22.5,9.8,49.4,0.1,63.9-21.7c0.1-0.1,0.1-0.2,0-0.3L311.3,536.4z"/>
	</g>
</g>
<g id="Layer_1_copy">
	<path fill="#828FA7" d="M473.2,242.2c-0.6,7.5-11.4,13.6-25.4,13.6s-25.4-6.1-25.4-13.6c0-20.2,11.4-13.6,25.4-13.6
		S474.3,228.6,473.2,242.2z"/>
	<ellipse fill="#939EAF" cx="447.8" cy="238.8" rx="25.4" ry="13.6"/>
	<polygon fill="#5E6F7F" points="439.6,241.4 439.6,215.2 435.7,215.2 435.7,238.6 	"/>
	<polygon fill="#6F7E93" points="456.7,231.8 456.7,208.1 439.6,215.2 439.6,241.4 	"/>
	<polyline fill="#828FA7" points="379.9,259 515.7,186 515.7,73.3 380.7,145.9 379.9,146.4 	"/>
	<polygon fill="#6F7E93" points="373.4,142.8 379.9,146.4 379.9,259 373.4,255.5 	"/>
	<polygon fill="#939EAF" points="509.5,69.5 515.7,73.3 379.9,146.4 373.4,142.8 	"/>
	<polygon fill="#E8E3D5" points="510.7,88.9 510.7,174 385.5,241.3 385.5,156.4 	"/>
	<path opacity="0.8" fill="#FCFCFC" stroke="#15293F" stroke-miterlimit="10" d="M492.6,134.4c0.7,1.1,0.3,2.5-0.9,3.1l-38.4,20.3
		c-1.2,0.6-2.7,0.2-3.3-0.9l0,0c-0.7-1.1-0.3-2.5,0.9-3.1l38.4-20.3C490.4,132.9,491.9,133.3,492.6,134.4L492.6,134.4z"/>
	<path opacity="0.8" fill="#FCFCFC" stroke="#15293F" stroke-miterlimit="10" d="M492.9,156.8c0.7,1.1,0.3,2.5-0.9,3.1l-38.4,20.3
		c-1.2,0.6-2.7,0.2-3.3-0.9l0,0c-0.7-1.1-0.3-2.5,0.9-3.1l38.4-20.3C490.7,155.3,492.2,155.7,492.9,156.8L492.9,156.8z"/>
	<path opacity="0.8" fill="#FCFCFC" stroke="#15293F" stroke-miterlimit="10" d="M492.6,124.5c0.7,1.1,0.3,2.5-0.9,3.1l-38.4,20.3
		c-1.2,0.6-2.7,0.2-3.3-0.9l0,0c-0.7-1.1-0.3-2.5,0.9-3.1l38.4-20.3C490.4,123,491.9,123.4,492.6,124.5L492.6,124.5z"/>
	<path opacity="0.8" fill="#FCFCFC" stroke="#15293F" stroke-miterlimit="10" d="M492.6,145.8c0.7,1.1,0.3,2.5-0.9,3.1l-38.4,20.3
		c-1.2,0.6-2.7,0.2-3.3-0.9l0,0c-0.7-1.1-0.3-2.5,0.9-3.1l38.4-20.3C490.4,144.3,491.9,144.7,492.6,145.8L492.6,145.8z"/>
	<path fill="#BD3452" d="M485.1,174.1c0.9,1.5,0.3,3.5-1.3,4.3l-10,5.2c-1.7,0.9-3.7,0.3-4.7-1.2l0,0c-0.9-1.5-0.3-3.5,1.3-4.3
		l10-5.2C482.1,172,484.2,172.6,485.1,174.1L485.1,174.1z"/>
	<g>
		<g>
			<path fill="#BD3452" d="M423.7,195.1c2.5-5.7,0.2-8.7-4.8-11.5c-10.6-5.8-11.1-11.7-1.4-22.2c-2.6,6.1-1.5,9.8,3.1,12.8
				C431.4,181.2,431.8,183.9,423.7,195.1z"/>
			<path fill="#BD3452" d="M406.1,182c2.8,1.6,5.3,3.4,8,4.4c4.1,1.5,5.8,3.7,4.1,8.1C414.3,190,402,193,406.1,182z"/>
		</g>
	</g>
</g>
<g id="Layer_3">
	<g>
		<g>
			<g>
				<polygon fill="#07894B" points="198.1,694.7 231.5,674.1 300,714.6 266,735 				"/>
			</g>
			<g>
				<polygon fill="#397F57" points="266,738.6 266,735 300,714.6 300,718.4 				"/>
			</g>
			<g>
				<polygon fill="#07894B" points="266,738.6 198.1,698.7 198.1,694.7 266,735 				"/>
			</g>
		</g>
	</g>
	<g>
		<polygon fill="#48A068" points="198.1,691.1 231.5,670.5 300,710.9 266,731.3 		"/>
		<polygon fill="#3B845C" points="266,735 266,731.3 300,710.9 300,714.7 		"/>
		<polygon fill="#069051" points="266,735 198.1,695.1 198.1,691.1 266,731.3 		"/>
	</g>
	<g>
		<g>
			<g>
				<polygon fill="#07894B" points="198.1,687.4 231.5,666.8 300,707.3 266,727.7 				"/>
			</g>
			<g>
				<polygon fill="#397F57" points="266,731.3 266,727.7 300,707.3 300,711.1 				"/>
			</g>
			<g>
				<polygon fill="#07894B" points="266,731.3 198.1,691.4 198.1,687.4 266,727.7 				"/>
			</g>
		</g>
	</g>
	<g>
		<polygon fill="#48A068" points="198.1,683.8 231.5,663.1 300,703.6 266,724 		"/>
		<polygon fill="#3B845C" points="266,727.7 266,724 300,703.6 300,707.4 		"/>
		<polygon fill="#069051" points="266,727.7 198.1,687.7 198.1,683.8 266,724 		"/>
	</g>
	<g>
		<g>
			<g>
				<polygon fill="#07894B" points="198.1,680.1 231.5,659.5 300,700 266,720.3 				"/>
			</g>
			<g>
				<polygon fill="#397F57" points="266,724 266,720.3 300,700 300,703.8 				"/>
			</g>
			<g>
				<polygon fill="#07894B" points="266,724 198.1,684.1 198.1,680.1 266,720.3 				"/>
			</g>
		</g>
	</g>
	<g>
		<polygon fill="#48A068" points="198.1,676.6 231.5,656 300,696.4 266,716.8 		"/>
		<polygon fill="#3B845C" points="266,720.5 266,716.8 300,696.4 300,700.2 		"/>
		<polygon fill="#069051" points="266,720.5 198.1,680.6 198.1,676.6 266,716.8 		"/>
	</g>
	<g>
		<g>
			<g>
				<polygon fill="#07894B" points="198.1,673.7 231.5,653.1 300,693.6 266,713.9 				"/>
			</g>
			<g>
				<polygon fill="#397F57" points="266,717.6 266,713.9 300,693.6 300,697.4 				"/>
			</g>
			<g>
				<polygon fill="#07894B" points="266,717.6 198.1,677.7 198.1,673.7 266,713.9 				"/>
			</g>
		</g>
	</g>
	<g>
		<polygon fill="#48A068" points="198.1,670.5 231.5,649.8 300,690.3 266,710.7 		"/>
		<polygon fill="#3B845C" points="266,714.3 266,710.7 300,690.3 300,694.1 		"/>
		<polygon fill="#069051" points="266,714.3 198.1,674.4 198.1,670.5 266,710.7 		"/>
	</g>
	<g>
		<g>
			<g>
				<polygon fill="#07894B" points="198.1,667.3 231.5,646.7 300,687.2 266,707.5 				"/>
			</g>
			<g>
				<polygon fill="#397F57" points="266,711.2 266,707.5 300,687.2 300,691 				"/>
			</g>
			<g>
				<polygon fill="#07894B" points="266,711.2 198.1,671.3 198.1,667.3 266,707.5 				"/>
			</g>
		</g>
	</g>
	<g>
		<polygon fill="#48A068" points="198.1,663.7 231.5,643 300,683.5 266,703.9 		"/>
		<polygon fill="#3B845C" points="266,707.5 266,703.9 300,683.5 300,687.3 		"/>
		<polygon fill="#069051" points="266,707.5 198.1,667.6 198.1,663.7 266,703.9 		"/>
	</g>
	<g>
		<polygon fill="#48A068" points="198.1,660.8 231.5,640.2 300,680.6 266,701 		"/>
		<polygon fill="#397F57" points="266,704.7 266,701 300,680.6 300,684.4 		"/>
		<polygon fill="#07894B" points="266,704.7 198.1,664.7 198.1,660.8 266,701 		"/>
	</g>
	<g>
		<polygon fill="#48A068" points="198.1,657.8 231.5,637.1 300,677.6 266,698 		"/>
		<polygon fill="#3B845C" points="266,701.7 266,698 300,677.6 300,681.4 		"/>
		<polygon fill="#069051" points="266,701.7 198.1,661.7 198.1,657.8 266,698 		"/>
	</g>
	
		<image display="none" overflow="visible" width="184" height="142" xlink:href="925301E9.jpg"  transform="matrix(1.4014 0 0 1.4014 116.0692 -726.2767)">
	</image>
	<g>
		<polygon fill="#D6D6D6" points="87.3,746.1 184.1,686.9 252.6,727.4 155.6,785.2 		"/>
		<polygon fill="#727E96" points="155.6,789.2 155.6,785.5 252.6,727.8 252.6,731.6 		"/>
		<polygon fill="#969FB2" points="155.6,788.9 87.3,749.7 87.3,745.7 155.6,785.2 		"/>
		<polygon fill="#969FB2" points="183.1,692.2 177.8,695.3 234.2,728.7 239.4,725.5 		"/>
		<polygon fill="#969FB2" points="175.7,696.2 170.4,699.4 226.8,732.7 232,729.6 		"/>
		<polygon fill="#969FB2" points="168.7,700.7 163.5,703.8 219.8,737.1 225.1,734 		"/>
		<polygon fill="#969FB2" points="158.6,707.8 153.4,711 209.7,744.3 215,741.2 		"/>
		<polygon fill="#969FB2" points="151.2,711.9 146,715 202.3,748.3 207.6,745.2 		"/>
		<polygon fill="#969FB2" points="144.3,716.3 139.1,719.4 195.4,752.8 200.7,749.6 		"/>
		<polygon fill="#969FB2" points="133.9,722.8 128.7,726 185,759.3 190.2,756.2 		"/>
		<polygon fill="#969FB2" points="126.5,726.9 121.3,730 177.6,763.3 182.9,760.2 		"/>
		<polygon fill="#969FB2" points="119.6,731.3 114.3,734.4 170.7,767.8 175.9,764.7 		"/>
		<polygon fill="#969FB2" points="108.7,738.7 103.5,741.8 159.8,775.1 165.1,772 		"/>
	</g>
	<g>
		<path fill="#F1BD3B" d="M265.1,756.4c-0.4,5.2-7.4,9.5-16.5,9.5c-9.1,0-16.5-4.3-16.5-9.5c0-14.1,7.4,3.5,16.5,3.5
			C257.7,759.9,265.8,746.9,265.1,756.4z"/>
		<ellipse fill="#FFCE44" cx="248.6" cy="754" rx="16.5" ry="9.5"/>
	</g>
	<path opacity="0.71" fill="#AEC1B6" d="M240.6,646.8l38.5,22.5c1.1,0.6,1.4,2.1,0.7,3.1c-0.7,0.9-1.2,2.1-0.9,3.3
		c0.3,1.1,0.9,2.1,1.6,2.9c0.8,1.1,0.5,2.6-0.7,3.2l-7.4,4c-0.6,0.3-1.3,0.3-2,0.1c-1.2-0.6-3.7-1.5-7.3-1.6
		c-3.4-0.1-5.5,0.8-6.6,1.4c-0.7,0.4-1.5,0.4-2.2,0l-38.5-22.8c-1.1-0.7-1.4-2.1-0.7-3.1c0.7-1,1.3-2.1,1-3c-0.2-0.6-0.6-1.2-1-1.7
		c-0.8-1-0.5-2.4,0.5-3.1l7.2-4.8c0.6-0.4,1.5-0.5,2.1-0.1c1.3,0.6,3.7,1.5,6.4,1.3c4.3-0.4,6.2-1.3,7.4-1.7
		C239.5,646.4,240.1,646.5,240.6,646.8z"/>
	<g>
		<path fill="#EAB43B" d="M265.1,754c-0.4,5.2-7.4,9.5-16.5,9.5c-9.1,0-16.5-4.3-16.5-9.5c0-14.1,7.4,3.5,16.5,3.5
			C257.7,757.5,265.8,744.5,265.1,754z"/>
		<ellipse fill="#FCC63D" cx="248.5" cy="751.6" rx="16.5" ry="9.5"/>
	</g>
	<g>
		<path fill="#F1BD3B" d="M265.1,751.6c-0.4,5.2-7.4,9.5-16.5,9.5s-16.5-4.3-16.5-9.5c0-14.1,7.4,3.5,16.5,3.5
			S265.9,742.1,265.1,751.6z"/>
		<ellipse fill="#FFCE44" cx="248.6" cy="749.2" rx="16.5" ry="9.5"/>
	</g>
	<g>
		<path fill="#EAB43B" d="M265.1,749.2c-0.4,5.2-7.4,9.5-16.5,9.5c-9.1,0-16.5-4.3-16.5-9.5c0-14.1,7.4,3.5,16.5,3.5
			C257.7,752.7,265.8,739.7,265.1,749.2z"/>
		<ellipse fill="#FCC63D" cx="248.6" cy="746.8" rx="16.5" ry="9.5"/>
	</g>
	<g>
		<path fill="#F1BD3B" d="M265.2,746.9c-0.4,5.2-7.4,9.5-16.5,9.5s-16.5-4.3-16.5-9.5c0-14.1,7.4,3.5,16.5,3.5
			S265.9,737.3,265.2,746.9z"/>
		<ellipse fill="#FFCE44" cx="248.6" cy="744.5" rx="16.5" ry="9.5"/>
	</g>
	<g>
		<path fill="#EAB43B" d="M265.1,744.5c-0.4,5.2-7.4,9.5-16.5,9.5s-16.5-4.3-16.5-9.5c0-14.1,7.4,3.5,16.5,3.5
			S265.8,734.9,265.1,744.5z"/>
		<ellipse fill="#FCC63D" cx="248.6" cy="742.1" rx="16.5" ry="9.5"/>
	</g>
	<g>
		<path fill="#F1BD3B" d="M265.2,742.1c-0.4,5.2-7.4,9.5-16.5,9.5s-16.5-4.3-16.5-9.5c0-14.1,7.4,3.5,16.5,3.5
			S265.9,732.5,265.2,742.1z"/>
		<ellipse fill="#FFCE44" cx="248.6" cy="739.7" rx="16.5" ry="9.5"/>
	</g>
	<g>
		<path fill="#EAB43B" d="M265.1,739.7c-0.4,5.2-7.4,9.5-16.5,9.5s-16.5-4.3-16.5-9.5c0-14.1,7.4,3.5,16.5,3.5
			S265.9,730.1,265.1,739.7z"/>
		<ellipse fill="#FCC63D" cx="248.6" cy="737.3" rx="16.5" ry="9.5"/>
	</g>
	<g>
		<path fill="#F1BD3B" d="M265.1,737.3c-0.4,5.2-7.4,9.5-16.5,9.5c-9.1,0-16.5-4.3-16.5-9.5c0-14.1,7.4,3.5,16.5,3.5
			C257.7,740.8,265.8,727.8,265.1,737.3z"/>
		<ellipse fill="#FFCE44" cx="248.5" cy="734.9" rx="16.5" ry="9.5"/>
	</g>
	<g>
		<path fill="#EAB43B" d="M265,734.9c-0.4,5.2-7.4,9.5-16.5,9.5s-16.5-4.3-16.5-9.5c0-14.1,7.4,3.5,16.5,3.5
			C257.6,738.4,265.7,725.4,265,734.9z"/>
		<ellipse fill="#FCC63D" cx="248.5" cy="732.5" rx="16.5" ry="9.5"/>
	</g>
	<g>
		<path fill="#F1BD3B" d="M265,732.2c-0.4,5.2-7.4,9.5-16.5,9.5s-16.5-4.3-16.5-9.5c0-14.1,7.4,3.5,16.5,3.5S265.7,722.6,265,732.2z
			"/>
		<ellipse fill="#FFCE44" cx="248.5" cy="729.7" rx="16.5" ry="9.5"/>
	</g>
	<g>
		<path fill="#EAB43B" d="M268.3,733.1c-0.4,5.2-7.4,9.5-16.5,9.5s-16.5-4.3-16.5-9.5c0-14.1,7.4,3.5,16.5,3.5
			S269,723.5,268.3,733.1z"/>
		<ellipse fill="#FCC63D" cx="251.8" cy="730.7" rx="16.5" ry="9.5"/>
	</g>
	<g>
		<path fill="#F1BD3B" d="M275.9,778c-0.4,5.2-7.4,9.5-16.5,9.5c-9.1,0-16.5-4.3-16.5-9.5c0-14.1,7.4,3.5,16.5,3.5
			C268.5,781.5,276.6,768.5,275.9,778z"/>
		<ellipse fill="#FFCE44" cx="259.3" cy="775.6" rx="16.5" ry="9.5"/>
	</g>
	<g>
		<path fill="#EAB43B" d="M275.8,775.6c-0.4,5.2-7.4,9.5-16.5,9.5c-9.1,0-16.5-4.3-16.5-9.5c0-14.1,7.4,3.5,16.5,3.5
			C268.4,779.1,276.5,766.1,275.8,775.6z"/>
		<ellipse fill="#FCC63D" cx="259.3" cy="773.2" rx="16.5" ry="9.5"/>
	</g>
	<g>
		<path fill="#F1BD3B" d="M275.9,773.2c-0.4,5.2-7.4,9.5-16.5,9.5c-9.1,0-16.5-4.3-16.5-9.5c0-14.1,7.4,3.5,16.5,3.5
			C268.5,776.7,276.6,763.7,275.9,773.2z"/>
		<ellipse fill="#FFCE44" cx="259.3" cy="770.8" rx="16.5" ry="9.5"/>
	</g>
	<g>
		<path fill="#EAB43B" d="M275.8,770.8c-0.4,5.2-7.4,9.5-16.5,9.5c-9.1,0-16.5-4.3-16.5-9.5c0-14.1,7.4,3.5,16.5,3.5
			C268.4,774.3,276.6,761.3,275.8,770.8z"/>
		<ellipse fill="#FCC63D" cx="259.3" cy="768.4" rx="16.5" ry="9.5"/>
	</g>
	<g>
		<path fill="#F1BD3B" d="M275.9,768.5c-0.4,5.2-7.4,9.5-16.5,9.5c-9.1,0-16.5-4.3-16.5-9.5c0-14.1,7.4,3.5,16.5,3.5
			C268.5,772,276.6,759,275.9,768.5z"/>
		<ellipse fill="#FFCE44" cx="259.4" cy="766.1" rx="16.5" ry="9.5"/>
	</g>
	<g>
		<path fill="#EAB43B" d="M279.4,766.5c-0.4,5.2-7.4,9.5-16.5,9.5c-9.1,0-16.5-4.3-16.5-9.5c0-14.1,7.4,3.5,16.5,3.5
			C272,770,280.1,757,279.4,766.5z"/>
		<ellipse fill="#FCC63D" cx="262.9" cy="764.1" rx="16.5" ry="9.5"/>
	</g>
	<g>
		<path fill="#F1BD3B" d="M240.9,775c-0.4,5.2-7.4,9.5-16.5,9.5s-16.5-4.3-16.5-9.5c0-14.1,7.4,3.5,16.5,3.5S241.6,765.4,240.9,775z
			"/>
		<ellipse fill="#FFCE44" cx="224.4" cy="772.6" rx="16.5" ry="9.5"/>
	</g>
	<g>
		<path fill="#EAB43B" d="M235.2,769.6c-0.4,5.2-7.4,9.5-16.5,9.5s-16.5-4.3-16.5-9.5c0-14.1,7.4,3.5,16.5,3.5
			S235.9,760.1,235.2,769.6z"/>
		<ellipse fill="#FCC63D" cx="218.6" cy="767.2" rx="16.5" ry="9.5"/>
	</g>
	<line fill="none" x1="256.6" y1="-451.6" x2="256.6" y2="-452.6"/>
	<g>
		<path fill="#BD3452" d="M168.2,769.5c-0.3,4-5.7,7.3-12.6,7.3s-12.6-3.3-12.6-7.3c0-10.8,5.7,2.7,12.6,2.7
			S168.8,762.2,168.2,769.5z"/>
		<ellipse fill="#BD3452" cx="155.6" cy="767.6" rx="12.6" ry="7.3"/>
	</g>
</g>
<g id="Layer_6">
	
		<image display="none" overflow="visible" width="836" height="581" xlink:href="925301E8.jpg"  transform="matrix(0.6098 0 0 0.5 90.1405 -369.667)">
	</image>
	<polygon fill="#828FA7" points="165.4,481.1 165.4,492.9 286.2,435.2 286.2,423.5 	"/>
	<polygon fill="#939EAF" points="230.5,397.1 286.2,423.5 165.4,481.1 115.8,451.5 	"/>
	<polygon fill="#6F7E93" points="165.4,492.9 165.4,481.1 115.8,451.5 118.7,470.4 	"/>
	<path fill="#F3B64B" d="M176.5,415.8V439c0,5,8.7,9,19.4,9s19.4-4,19.4-9v-22.4L176.5,415.8z"/>
	<ellipse fill="#FFCE5D" cx="195.9" cy="416" rx="19.4" ry="9"/>
	<path fill="#E5B653" d="M187.1,333.3v82.7c0,2.2,4,3.9,8.9,3.9s8.9-1.7,8.9-3.9v-87.5L187.1,333.3z"/>
	<path fill="#E5B653" d="M152.8,460.2c0.5,0.9,1.5,1.4,2.3,0.9l0,0c0.8-0.4,1-1.5,0.5-2.5l-46-85.3c-0.5-0.9-1.5-1.4-2.3-0.9l0,0
		c-0.8,0.4-1,1.5-0.5,2.5L152.8,460.2z"/>
	<g>
		<ellipse fill="#ECBB4D" cx="108.6" cy="461.6" rx="49.9" ry="25.2"/>
		<ellipse fill="#FFCE5D" cx="108.6" cy="460.2" rx="49.9" ry="23.8"/>
	</g>
	<g id="Layer_8">
		
			<image display="none" overflow="visible" width="699" height="694" xlink:href="925301E7.jpg"  transform="matrix(0.5485 0 0 0.5485 -204.7608 -466.3353)">
		</image>
		<polygon fill="#494846" points="92.6,388.3 92.6,430.2 152.5,464.7 152.5,423.1 		"/>
		<polygon fill="#384A69" points="116.4,485.9 116.4,488.4 154.9,466.1 154.9,421.6 152.5,423.1 152.5,464.7 		"/>
		<polygon fill="#E8E3D5" points="94.8,392.6 94.8,428.7 150.2,460.8 150.2,424.5 		"/>
		<polygon fill="#5A6B88" points="154.9,421.6 152.5,423.1 92.6,388.3 94.8,387 		"/>
		<polygon fill="#425572" points="56.5,450.9 56.5,453.8 116.4,488.4 116.4,485.9 		"/>
		<polygon fill="#5A6B88" points="92.6,430.2 56.5,450.9 116.4,485.9 152.5,464.7 		"/>
		<polygon fill="#494846" points="92.7,457.9 104.3,464.8 94.7,470.3 82.9,463.4 		"/>
		<polygon fill="#494846" points="92.4,432.9 73.3,443.8 128.3,475.9 147.6,464.7 		"/>
	</g>
	<path fill="#E5B653" d="M71.5,476c-0.4,1.1-0.1,2.3,0.8,2.6l0,0c0.8,0.3,1.8-0.3,2.2-1.5l37.2-101.1c0.4-1.1,0.1-2.3-0.8-2.6l0,0
		c-0.8-0.3-1.8,0.3-2.2,1.5L71.5,476z"/>
	<path fill="#E5B653" d="M322.4,380.5c0.6,0.9,1.6,1.3,2.4,0.8l0,0c0.8-0.5,0.9-1.6,0.4-2.5l-50-83c-0.6-0.9-1.6-1.3-2.4-0.8l0,0
		c-0.8,0.5-0.9,1.6-0.4,2.5L322.4,380.5z"/>
	<g>
		<ellipse fill="#ECBB4D" cx="275.7" cy="382.5" rx="49.9" ry="25.2"/>
		<ellipse fill="#FFCE5D" cx="275.7" cy="381.1" rx="49.9" ry="23.8"/>
	</g>
	<g>
		<polygon fill="#425572" points="251.7,329.6 300.5,358.6 300.5,404 251.7,374.3 		"/>
		<polygon fill="#384A69" points="302.6,357 300.5,358.6 300.5,404 302.6,402.4 		"/>
		<polygon fill="#5A6B88" points="254.1,328.2 302.6,357 300.5,358.6 251.7,329.6 		"/>
		<polygon fill="#E8E3D5" points="254,336.6 254,369.6 295,394.6 295,360.3 254,336.2 		"/>
		<path fill="#1E1D1A" d="M299.8,379.7c0,1-0.7,1.8-1.7,1.9l0,0c-1,0-1.8-0.7-1.9-1.7l0-1c0-1,0.7-1.8,1.7-1.9l0,0
			c1,0,1.8,0.7,1.9,1.7L299.8,379.7z"/>
	</g>
	<path fill="#E5B653" d="M241.4,398.3c-0.4,1.1,0,2.3,0.9,2.5l0,0c0.8,0.3,1.8-0.4,2.2-1.6l32.5-102.6c0.4-1.1,0-2.3-0.9-2.5l0,0
		c-0.8-0.3-1.8,0.4-2.2,1.6L241.4,398.3z"/>
	<path fill="#FFCE5D" d="M276.8,293.1l-2.7-2c-0.8-0.6-2-0.8-3-0.4c-9.6,3.6-56.6,19.6-77,29.2c-21.1,9.9-81.9,45.6-89.9,50.1
		c-0.5,0.3-0.7,0.9-0.4,1.4l1.3,2.4h5.2l111.1-53.2L276.8,293.1z"/>
	<path fill="#E5B653" d="M106.9,373.3v2.6c0,1,1,1.6,1.9,1.2l167.4-78.9c0.6-0.3,1-0.9,1-1.5v-2.5c0-1.2-1.3-2.1-2.3-1.6
		c-10,5.2-67.4,25.3-80.8,32.9c-12.3,7-79.1,42.6-86.5,46.7C107.2,372.4,106.9,372.8,106.9,373.3z"/>
	<path fill="#FCCF75" d="M107.7,377.1l-3-1.5c-0.4-0.1-0.7-0.5-0.7-1l-0.2-3.7c0-0.4,0.4-0.6,0.7-0.5l3.1,1.8L107.7,377.1z"/>
</g>
<g id="Layer_14">
	<polygon fill="#D6D6D6" points="69.8,58.7 56.5,174 163.8,128.5 177.8,16.1 	"/>
	<polygon fill="#727E96" points="63.6,52.6 50.2,166.1 56.5,174 69.8,58.7 	"/>
	<g>
		<g>
			<polygon fill="#969FB2" points="169,11 63.6,52.6 69.8,58.7 177.8,16.1 			"/>
		</g>
	</g>
	<polygon fill="#727E96" points="97.2,63.9 96.4,71 167.3,42.5 168.1,35.8 	"/>
	<polygon fill="#727E96" points="92.4,104 91.6,111.1 162.5,82.6 163.3,75.9 	"/>
	<polygon fill="#727E96" points="90.3,125.8 89.5,132.9 160.4,104.4 161.2,97.7 	"/>
	<polygon fill="#727E96" points="87.6,147.5 86.7,154.6 157.6,126.1 158.4,119.4 	"/>
	<polygon fill="#727E96" points="95.2,83.7 94.4,90.8 165.3,62.3 166.1,55.6 	"/>
	<polygon fill="#D6D6D6" points="141.7,31 140.4,42.3 176.4,27.4 177.8,16.1 	"/>
	<path fill="#FBB7AA" d="M230.5,125.1c0,0,1,6.7,0.9,9c-0.1,1.9-0.2,9.8-0.6,12.2c-0.6,3.7-4.5,11.5-4.5,11.5s-1.9-8.2-2.8-8.7
		c-0.9-0.6-3.7-9.9-3.6-11s3-9.3,3-9.3L230.5,125.1z"/>
	<path fill="#2268AF" d="M173.6,156.8c0,0-3.6,40.1-1.9,43.9c1.8,3.9,6.5,11,25.4,7.5c18.9-3.4,36.5-13.3,36.2-21.2
		c-0.9-23.8-7.4-55.9-8-55.1c0,0,3.7-1.5,6.3-4.1c2.2-2.2-1.2-22.6-14.6-28.8c-17.9-8.3-27.4,0-34.5,4.2
		C177.6,106.3,173.6,156.8,173.6,156.8z"/>
	<path fill="#F2A79E" d="M198.7,100.8c3.8-0.3,7.8-5,7.8-5l-1.4-8.8l-4-5.8l-11,0.7l-2,4.1l0.9,13.2
		C189,99.1,190.9,101.4,198.7,100.8z"/>
	<path fill="#FBB7AA" d="M186.1,88.2c-2.8-1.1-7.7-4.9-8.3-14.3s3.5-16.6,3.5-16.6l20.5,23.8l-0.8,7.6
		C201.1,88.7,190.3,89.8,186.1,88.2z"/>
	<path fill="#FBB7AA" d="M164.8,139.4l11.5,9c0,0-14.1,15.6-17.7,14.5c-3.6-1.1-6.3-4.1-7.3-4.9c-1-0.9-15.1-16.8-21.4-20.3
		c-2.5-1.4-8.4-2.1-10.9-3.5c-2.3-1.3-5.3-3.7-7.1-5.7c-1-1.1-3.1-3.9-1.1-7.4s9.1,0.8,9.1,0.8s4.5,2.7,5.4,2.1
		c1.2-0.9-4-6.1-3.1-7.4c0.3-0.4,1.3-0.9,1.6-0.5c1.2,1.7,5.4,6.7,6.6,7.9c2,2,4.2,7.2,4.9,7.7c16.9,11.8,17.6,13.7,21.5,15.6
		C160.7,149.2,164.8,139.4,164.8,139.4z"/>
	<path fill="#2F7BBA" d="M182.5,103.3c1.2-0.7,3.7-0.7,5.5,1.2c2.8,2.9,4.3,8.2,4.3,18.3c0,0.1-1.1,11-3.1,15.2
		c-2.1,4.3-6,9.9-9.9,10.9c-2.3,0.6-13.8-4.3-16.7-11.1c-1-2.4,0.8-9.6,3.5-15.1C168.4,117.9,177.2,106.5,182.5,103.3z"/>
	<path fill="#020100" d="M207.6,90.2c0,0,12.2,0,12.7-18c0.3-11.3-1.6-21.2-8.8-26.6c-7.2-5.4-19.6-7.2-25.7-1.5
		c-6.1,5.8-9.7,13.2-5.2,22.9c1.7,3.7,5,7.9,7.3,9c0.8,0.4-1.5-3,1.8-4.2c0.6-0.2,3.2,0.8,3.1,2.6c-0.1,2-1,5.2,1.1,7.8
		C201.3,91.4,207.6,90.2,207.6,90.2z"/>
	<path fill="#EA2437" d="M79.2-131.3l1.7-2c0.4-0.5,0.3-1.2-0.1-1.6l-1.1-0.9c-0.5-0.4-1.3-0.4-1.7,0.1l-1.7,2l-1.9-1.6
		c-0.5-0.5-1.4-0.4-1.8,0.2l-0.8,0.9c-0.5,0.5-0.4,1.4,0.2,1.8l1.9,1.6l-1.6,1.9c-0.5,0.5-0.4,1.4,0.2,1.8l0.9,0.8
		c0.5,0.5,1.4,0.4,1.8-0.2l1.6-1.9l1.9,1.6c0.5,0.5,1.4,0.4,1.8-0.2l0.8-0.9c0.5-0.5,0.4-1.4-0.2-1.8L79.2-131.3z"/>
	<path fill="#1AAD33" d="M79.4,70l3.6,5.5c0.2,0.3,0.6,0.5,1,0.5l0.9-0.1c0.5,0,0.9-0.4,0.9-0.9l1.6-14.4c0.1-0.6-0.4-1.2-1.1-1.1
		l0,0c-0.5,0-0.9,0.4-1,0.9l-1.2,9.1c-0.1,0.9-1.3,1.2-1.8,0.5l-1-1.3c-0.3-0.4-0.8-0.5-1.3-0.3l-0.2,0.1
		C79.3,68.8,79.1,69.5,79.4,70z"/>
	<path fill="#1AAD33" d="M76.8,108.8l2.8,5.9c0.2,0.3,0.5,0.6,0.9,0.6l0.9,0c0.5,0,0.9-0.3,1-0.8l3.5-14c0.2-0.6-0.3-1.2-0.9-1.3
		l0,0c-0.5,0-1,0.3-1.1,0.8l-2.3,8.9c-0.2,0.9-1.4,1.1-1.9,0.3l-0.8-1.4c-0.2-0.4-0.8-0.6-1.2-0.5l-0.2,0.1
		C76.8,107.6,76.5,108.2,76.8,108.8z"/>
	<path fill="#1AAD33" d="M74.5,129.5l3,5.8c0.2,0.3,0.5,0.6,0.9,0.6l0.9,0c0.5,0,0.9-0.3,1-0.8l3-14.2c0.1-0.6-0.3-1.2-0.9-1.2l0,0
		c-0.5,0-1,0.3-1.1,0.8l-2,9c-0.2,0.9-1.4,1.1-1.9,0.3l-0.9-1.4c-0.3-0.4-0.8-0.6-1.2-0.4l-0.2,0.1C74.5,128.3,74.2,129,74.5,129.5z
		"/>
	<path fill="#EA2437" d="M84.8-147l1.7-2c0.4-0.5,0.3-1.2-0.1-1.6l-1.1-0.9c-0.5-0.4-1.3-0.4-1.7,0.1l-1.7,2L80-151
		c-0.5-0.5-1.4-0.4-1.8,0.2l-0.8,0.9c-0.5,0.5-0.4,1.4,0.2,1.8l1.9,1.6l-1.6,1.9c-0.5,0.5-0.4,1.4,0.2,1.8l0.9,0.8
		c0.5,0.5,1.4,0.4,1.8-0.2l1.6-1.9l1.9,1.6c0.5,0.5,1.4,0.4,1.8-0.2l0.8-0.9c0.5-0.5,0.4-1.4-0.2-1.8L84.8-147z"/>
	<g>
		<path fill="#EA2437" d="M77.8,93.7L77.8,93.7c-0.6-0.6-0.6-1.5-0.1-2.1l6.9-7.1c0.6-0.6,1.5-0.6,2.1,0l0,0c0.6,0.6,0.6,1.5,0,2.1
			l-6.9,7.1C79.3,94.3,78.4,94.3,77.8,93.7z"/>
		<path fill="#EA2437" d="M77.6,84.6L77.6,84.6c0.6-0.6,1.5-0.6,2.1,0l7.1,7c0.6,0.6,0.6,1.5,0,2.1l0,0c-0.6,0.6-1.5,0.6-2.1,0
			l-7.1-7C77.1,86.1,77.1,85.2,77.6,84.6z"/>
	</g>
	<g>
		<path fill="#EA2437" d="M72.3,157L72.3,157c-0.6-0.6-0.6-1.5-0.1-2.1l6.9-7.1c0.6-0.6,1.5-0.6,2.1,0l0,0c0.6,0.6,0.6,1.5,0,2.1
			l-6.9,7.1C73.8,157.6,72.8,157.6,72.3,157z"/>
		<path fill="#EA2437" d="M72.1,147.9L72.1,147.9c0.6-0.6,1.5-0.6,2.1,0l7.1,7c0.6,0.6,0.6,1.5,0,2.1l0,0c-0.6,0.6-1.5,0.6-2.1,0
			l-7.1-7C71.6,149.4,71.5,148.4,72.1,147.9z"/>
	</g>
</g>
<g id="Слой_1">
</g>
</svg>
