<?xml version="1.0" encoding="utf-8"?>
<!-- Generator: Adobe Illustrator 17.1.0, SVG Export Plug-In . SVG Version: 6.00 Build 0)  -->
<!DOCTYPE svg PUBLIC "-//W3C//DTD SVG 1.1//EN" "http://www.w3.org/Graphics/SVG/1.1/DTD/svg11.dtd">
<svg version="1.1" xmlns="http://www.w3.org/2000/svg" xmlns:xlink="http://www.w3.org/1999/xlink" x="0px" y="0px"
	 viewBox="0 0 50 50" enable-background="new 0 0 50 50" xml:space="preserve">
<g id="Layer_6">
</g>
<g id="grid" display="none">
</g>
<g id="Layer_1">
</g>
<g id="Layer_4" display="none">
</g>
<g id="Layer_10">
</g>
<g id="Layer_8">
</g>
<g id="принятие_заказа">
	<g id="Layer_2">
	</g>
	<g id="Слой_1">
		<g id="Layer_7">
		</g>
	</g>
	<g id="Layer_1_1_">
	</g>
</g>
<g id="chef">
</g>
<g id="Layer_12" display="none">
</g>
<g id="Layer_14">
</g>
<g id="Layer_15">
	<path fill="#FBB7AA" d="M17.3,14.2"/>
	<path fill="#FBB7AA" d="M20.6,20.7c0.3,0.2,1.8,1.6,1.8,1.6L23,22c0,0-1.6-1.6-1.8-1.9c-0.3-0.3-0.5-1.9-0.5-1.9l-1,0.5
		c0,0,0.2,0.8,0.4,1.1C20.3,20.1,20.4,20.6,20.6,20.7z"/>
	<path fill="#95B2CE" d="M20.1,17.1c0.6,0.4,0.9,1,0.9,1.3s-0.1,0.5-0.2,0.6c-0.1,0.1-0.5,0.4-0.5,0.4l-0.7-0.8l0.1-1.4L20,17
		L20.1,17.1z"/>
	<path fill="#C4DBF6" d="M16,17.7c0,0,1.6-1.3,3.2-0.9s0.6,0.7,0.7,1.6c0.1,0.9-0.5,2.3-0.4,2.9c0.1,0.6-0.7,0.9-1.4,0.9
		c-0.7,0-1.8,0.7-1.8,0.7s-0.6-3.2-0.5-3.9C16,18.3,16,17.7,16,17.7z"/>
	<path fill="#B23850" d="M20.5,26.1l-4.5,2.3L15,28c0,0,0.2-1.5,0.3-2.1c0-0.5,0.1-1.4,0.3-2c0.2-0.5,1.2-2,1.5-2.3
		c0.3-0.4,0.8-1.5,0.7-2c0-0.5-0.7-1.5-0.7-1.6c-0.1-0.1-0.5-0.7-0.4-0.7c0.1,0,0.3-0.2,0.4-0.1s1,1.5,1,1.6c0,0.1,1.2,0,1.5-0.3
		c0.1-0.1-0.9-1.5-0.9-1.6c0-0.1,0.5-0.3,0.6-0.1s0.8,1.5,1.1,1.8c0.3,0.4,0.5,0.9,0.2,1.3s-0.7,1.1-0.5,1.5
		c0.2,0.5,0.7,2.8,0.7,3.3s0,1.2,0,1.2L20.5,26.1z"/>
	<polygon fill="#D6D6D6" points="30.2,18.4 39.8,24 16.8,37.5 6.9,31.8 	"/>
	<path fill="#F2A79E" d="M18.3,17.2c0,0,0.4,0.7,0.3,0.9s-0.1,0.3-0.3,0.3c-0.2,0-0.9-0.7-0.9-1S17,15.9,17,15.9l0.5,0H18l0.5,0.5
		L18.3,17.2z"/>
	<path fill="#FBB7AA" d="M17.2,15.3l0.2-1c0,0,0.3-0.5,1.2-0.1c0.9,0.4,0.9,1,0.9,1s0.2,0.7-0.1,1.2c-0.3,0.5-0.5,0.6-0.9,0.6
		c-0.4,0-0.7-0.3-0.9-0.6C17.5,16.1,17.3,15.7,17.2,15.3z"/>
	<path d="M17.3,13.5c1.9-0.7,2.4,0.5,2.5,1.1c0.2,0.6-0.1,1.1-0.2,1.3c-0.1,0.2,0-0.5-0.2-0.4c-0.2,0.1-0.6,0.5-1,0.5
		s-0.8-0.5-0.9-0.3c-0.1,0.1-0.1,0.9-0.1,1.3s0.2,0.5-0.3,0.5s-0.7-0.3-0.9-0.6C16.1,16.5,16,16,16,15.4
		C16,14.9,16.6,13.8,17.3,13.5z"/>
	<polygon fill="#8590AA" points="39.8,24 39.8,35.2 16.8,48.9 16.8,37.5 	"/>
	<polygon fill="#727E96" points="6.9,31.8 16.8,37.5 16.8,48.9 6.9,43.2 	"/>
	<polygon fill="#1D2228" points="31.6,14.8 31.6,18.5 27.5,21.1 27.4,17.2 	"/>
	<polygon fill="#30363F" points="31.4,17.7 34.2,19.2 30.7,21 27.9,19.6 	"/>
	<polygon fill="#282D35" points="27.9,19.6 30.7,21 30.7,25.2 27.9,23.8 	"/>
	<polygon fill="#A1A8B2" points="16.8,37.5 16.8,38.7 6.9,33 6.9,31.8 	"/>
	<polygon fill="#A1A8B2" points="16.8,47.1 16.8,47.9 6.9,42.1 6.9,41.4 	"/>
	<polygon fill="#111519" points="27.2,17.1 27.4,17.2 27.5,21.1 27.2,21 	"/>
	<path fill="#3E4249" d="M34.7,19.5v3.5c0,0.2-0.1,0.4-0.3,0.5l-3,1.8c-0.4,0.2-0.8-0.1-0.8-0.5v-3.7c0-0.2,0.1-0.4,0.3-0.5l3-1.6
		C34.2,18.9,34.7,19.1,34.7,19.5z"/>
	<path fill="#B2B7C1" d="M34.4,19.9V23c0,0.2-0.1,0.3-0.2,0.4l-2.7,1.5c-0.3,0.2-0.7,0-0.7-0.4v-3.2c0-0.2,0.1-0.3,0.3-0.4l2.7-1.4
		C34,19.3,34.4,19.5,34.4,19.9z"/>
	<g>
		<path fill="#B23850" d="M33.8,21.7L33.8,21.7c-0.1,0-0.2,0-0.3,0.1l0,0c-0.2,0.2-0.5,0.2-0.6-0.1l0,0c0-0.1-0.1-0.2-0.2-0.2l0,0
			c-0.3-0.1-0.3-0.4-0.1-0.6l0,0c0.1-0.1,0.1-0.2,0.1-0.3l0,0c0-0.3,0.3-0.4,0.5-0.2l0,0c0.1,0.1,0.2,0.1,0.3,0.1l0,0
			c0.3-0.1,0.5,0.2,0.4,0.4l0,0c0,0.1,0,0.2,0,0.3l0,0C34.3,21.4,34.1,21.7,33.8,21.7z"/>
		<g>
			
				<text transform="matrix(0.9835 -0.2402 0.2372 0.9715 33.164 21.556)" fill="#D6D6D6" font-family="'PartnerBlack'" font-size="0.6993">%</text>
		</g>
	</g>
	<path fill="#2B5E0A" d="M7.3,12.6"/>
	<g>
		<path fill="#997637" d="M31.6,22.8c0,0,0,0.3,0.1,0.3c0.1,0.2,0.4,0.3,0.9,0.2c0.5-0.1,0.8-0.3,0.8-0.5c0.1-0.3-0.1-0.3-0.1-0.3
			L31.6,22.8z"/>
		<path fill="#9BC134" d="M31.5,22.6c0,0-0.2,0.1-0.1,0.1c0,0,0.1,0,0.1,0.1c0,0.1-0.1,0.3,0,0.3s0.2-0.2,0.2-0.1
			c0.1,0.1,0.1,0.3,0.1,0.2c0.1-0.1,0.1-0.2,0.2-0.1c0.1,0.1,0.2,0.3,0.2,0.2c0-0.1,0-0.2,0.2-0.2s0.2,0.2,0.3,0.2
			c0.1,0,0.1-0.1,0.1-0.2c0-0.1-0.1-0.2,0.1-0.1c0.2,0.1,0.4,0.1,0.4,0s-0.1-0.3-0.1-0.3s0.3-0.1,0.3-0.2s-0.1-0.1-0.2-0.1
			c-0.1,0-0.9,0.1-0.9,0.1L31.5,22.6z"/>
		<path fill="#FBC14F" d="M31.5,22.5l-0.1,0.1c0,0,0.8,0.5,0.9,0.5s1.1-0.6,1.1-0.7c0-0.1-0.5-0.1-0.5-0.1L31.5,22.5z"/>
		<path fill="#512210" d="M31.5,22.4c0,0-0.1,0.2,0,0.2c0.1,0.1,0.2,0.1,0.3,0.1c0.2,0,0.3,0.1,0.5,0c0.3,0,0.4-0.1,0.5-0.1
			c0.2-0.1,0.4-0.2,0.4-0.3c0,0,0-0.2-0.1-0.2c-0.1-0.1-0.6,0-0.6,0S31.7,22.2,31.5,22.4z"/>
		<path fill="#997637" d="M31.5,22.4c-0.1-0.2-0.1-0.3,0-0.5c0.1-0.2,0.4-0.4,0.5-0.4c0.1,0,0.4-0.1,0.7,0c0.2,0.1,0.4,0.2,0.5,0.5
			c0.1,0.2,0,0.3-0.1,0.4c-0.1,0.1-0.3,0.2-0.6,0.3C32.1,22.7,31.6,22.6,31.5,22.4z"/>
		<path fill="#B28A49" d="M31.5,22.2c-0.1-0.1-0.1-0.1,0-0.3c0.1-0.2,0.4-0.4,0.5-0.4c0.1,0,0.4-0.1,0.7,0c0.2,0.1,0.2,0.1,0.3,0.2
			c0.1,0.1,0.1,0.3-0.1,0.4c-0.1,0.1-0.3,0.2-0.6,0.3C32,22.4,31.7,22.4,31.5,22.2z"/>
		<path fill="#D8C89C" d="M31.8,21.6C31.8,21.6,31.7,21.7,31.8,21.6C31.8,21.7,31.9,21.7,31.8,21.6C31.8,21.6,31.8,21.6,31.8,21.6z"
			/>
		<path fill="#D8C89C" d="M32,21.5C32,21.5,31.9,21.5,32,21.5C32,21.6,32.1,21.6,32,21.5C32.1,21.5,32,21.5,32,21.5z"/>
		<path fill="#D8C89C" d="M32.2,21.7C32.2,21.7,32.1,21.8,32.2,21.7C32.2,21.8,32.2,21.7,32.2,21.7C32.2,21.7,32.2,21.7,32.2,21.7z"
			/>
		<path fill="#D8C89C" d="M32.5,21.5C32.5,21.5,32.4,21.5,32.5,21.5C32.5,21.6,32.5,21.5,32.5,21.5C32.5,21.5,32.5,21.5,32.5,21.5z"
			/>
		<path fill="#D8C89C" d="M32.1,21.9C32.1,21.9,32,21.8,32.1,21.9C32.1,22,32.2,21.9,32.1,21.9C32.2,21.9,32.1,21.9,32.1,21.9z"/>
		<path fill="#D8C89C" d="M31.8,21.8C31.8,21.8,31.7,21.7,31.8,21.8C31.7,21.9,31.8,21.9,31.8,21.8C31.8,21.8,31.8,21.8,31.8,21.8z"
			/>
		<path fill="#D8C89C" d="M31.6,21.9C31.6,21.9,31.6,21.9,31.6,21.9C31.6,22,31.7,22,31.6,21.9C31.7,22,31.6,21.9,31.6,21.9z"/>
		<path fill="#D8C89C" d="M31.9,22C31.9,22,31.9,22,31.9,22C32,22,32,22,31.9,22C32,21.9,31.9,22,31.9,22z"/>
		<path fill="#D8C89C" d="M31.8,21.9C31.8,21.9,31.7,21.9,31.8,21.9C31.8,22,31.9,21.9,31.8,21.9C31.8,21.9,31.8,21.9,31.8,21.9z"/>
		<path fill="#D8C89C" d="M32.5,21.8C32.5,21.8,32.4,21.8,32.5,21.8C32.6,21.8,32.6,21.8,32.5,21.8C32.6,21.8,32.5,21.8,32.5,21.8z"
			/>
		<path fill="#D8C89C" d="M32.3,21.9C32.3,21.9,32.3,22,32.3,21.9C32.4,21.9,32.4,21.9,32.3,21.9C32.4,21.9,32.3,21.9,32.3,21.9z"/>
		<path fill="#D8C89C" d="M32.5,21.6C32.5,21.6,32.4,21.7,32.5,21.6C32.5,21.6,32.5,21.6,32.5,21.6C32.5,21.6,32.5,21.6,32.5,21.6z"
			/>
		<path fill="#D8C89C" d="M32.3,21.6C32.3,21.6,32.2,21.6,32.3,21.6C32.3,21.6,32.4,21.6,32.3,21.6C32.4,21.6,32.3,21.6,32.3,21.6z"
			/>
		<path fill="#D8C89C" d="M32,21.6C32,21.6,31.9,21.7,32,21.6C32,21.7,32,21.7,32,21.6C32,21.6,32,21.6,32,21.6z"/>
		<path fill="#D8C89C" d="M32.2,21.5C32.2,21.5,32.1,21.5,32.2,21.5C32.3,21.6,32.3,21.5,32.2,21.5C32.3,21.5,32.2,21.5,32.2,21.5z"
			/>
		<path fill="#D8C89C" d="M32,21.8C32,21.8,31.9,21.8,32,21.8C32,21.9,32,21.8,32,21.8C32,21.8,32,21.8,32,21.8z"/>
		<path fill="#D8C89C" d="M32.2,21.6C32.2,21.6,32.1,21.6,32.2,21.6C32.1,21.7,32.2,21.7,32.2,21.6C32.2,21.6,32.2,21.6,32.2,21.6z"
			/>
		<path fill="#D8C89C" d="M32.4,21.7C32.4,21.7,32.3,21.6,32.4,21.7C32.4,21.7,32.4,21.7,32.4,21.7C32.4,21.7,32.4,21.7,32.4,21.7z"
			/>
	</g>
	<polygon fill="#282D35" points="31.4,14.7 31.6,14.8 27.4,17.2 27.2,17.1 	"/>
	<polygon fill="#B2B7C1" points="16.8,47.1 39.9,33.7 39.8,34.5 16.8,47.9 	"/>
	<polygon fill="#B2B7C1" points="16.8,37.5 39.8,24 39.8,25.2 16.8,38.7 	"/>
	<polygon fill="#30363F" points="21.7,22.5 22.8,23.2 26.3,21.3 25.2,20.7 	"/>
	<polygon fill="#3E4249" points="22.6,27.9 22.8,23.2 26.3,21.3 26.9,25.4 23.7,27.7 	"/>
	<polygon fill="#3E4249" points="18.9,24.6 21,23.3 21.7,23.3 20.7,25.2 	"/>
	<polygon fill="#282D35" points="21.7,22.5 20.6,24.8 18.9,24.6 18.9,26.1 22.6,27.9 22.8,23.2 	"/>
	<path fill="#040E0F" d="M26.9,44.5c-0.3-0.2-1.3-0.6-1.5-0.3c-0.2,0.3,0.3,1.1,1,1.5c0.7,0.4,1.1,0.6,1.5,0.7
		c0.2,0.1,0.9,0.2,1.1,0c0.2-0.3,0.3-0.7-0.4-0.8C28.1,45.5,27.4,44.7,26.9,44.5z"/>
	<path fill="#040E0F" d="M30.8,42.7c-0.3-0.2-1.3-0.6-1.5-0.3c-0.2,0.3,0.3,1.1,1,1.5c0.7,0.4,1.1,0.6,1.5,0.7
		c0.2,0.1,0.6,0.1,0.8-0.1c0.2-0.3,0.3-0.4,0-0.7S31.2,42.9,30.8,42.7z"/>
	<path fill="#040E0F" d="M27,33.6l4.7-0.8l1,11.3c0,0-0.9-0.5-1.4-1c-0.2-0.1-1-0.7-1-0.7l-0.4-6l-0.4,0.2l-0.4,9.5l-2.6-1.3
		L27,33.6z"/>
	<path fill="#FBB7AA" d="M31.7,27.3c0,0,0.1,0.6,0.1,0.8c0,0.2,0,0.9-0.1,1.1c-0.1,0.3-0.4,1-0.4,1s-0.2-0.7-0.3-0.8
		c-0.1-0.1-0.3-0.9-0.3-1c0-0.1,0.3-0.8,0.3-0.8L31.7,27.3z"/>
	<path fill="#2268AF" d="M26.7,30.1c0,0-0.3,3.5-0.2,3.9c0.2,0.3,0.6,1,2.2,0.7c1.7-0.3,3.2-1.2,3.2-1.9c-0.1-2.1-0.7-4.9-0.7-4.9
		c0,0,0.3-0.1,0.6-0.4c0.2-0.2-0.1-2-1.3-2.5c-1.6-0.7-2.4,0-3,0.4C27.1,25.6,26.7,30.1,26.7,30.1z"/>
	<path fill="#F2A79E" d="M28.9,25.1c0.3,0,0.7-0.4,0.7-0.4l-0.1-0.8l-0.4-0.5l-1,0.1L28,23.8l0.1,1.2C28.1,25,28.3,25.2,28.9,25.1z"
		/>
	<path fill="#FBB7AA" d="M27.8,24c-0.2-0.1-0.7-0.4-0.7-1.3c-0.1-0.8,0.3-1.5,0.3-1.5l1.8,2.1l-0.1,0.7C29.1,24.1,28.2,24.2,27.8,24
		z"/>
	<path fill="#FBB7AA" d="M17.9,25.2c0.3,0.1,1,0.6,1.2,0.7c0.2,0.1,0.3,0.3,0.2,0.3c-0.1,0-0.6-0.3-0.6-0.2
		c-0.1,0.2,0.6,0.5,0.6,0.7c0,0.2-0.4,0.1-0.8-0.1c-0.3-0.2-0.7-0.4-1-0.9c-0.4-0.7-2-1.6-2.1-2.5c-0.1-1-0.3-2.9-0.3-2.9
		s0.1,0.1,0.5,0.1c0.2,0,0.6,0,0.6,0s-0.1,2.4,0.1,2.8C16.9,24.1,17.3,24.9,17.9,25.2z"/>
	<rect x="21" y="26" transform="matrix(0.847 0.5317 -0.5317 0.847 17.6455 -7.2986)" fill="#A1A8B2" width="1" height="2"/>
	<path fill="#FBB7AA" d="M25.9,28.6l1,0.8c0,0-1.2,1.4-1.6,1.3c-0.3-0.1-0.6-0.4-0.6-0.4c-0.1-0.1-1.3-1.5-1.9-1.8
		c-0.2-0.1-0.7-0.2-1-0.3c-0.2-0.1-0.5-0.3-0.6-0.5c-0.1-0.1-0.3-0.3-0.1-0.7C21.4,26.6,22,27,22,27s0.4,0.2,0.5,0.2
		c0.1-0.1-0.4-0.5-0.3-0.7c0,0,0.1-0.1,0.1,0c0.1,0.2,0.5,0.6,0.6,0.7c0.2,0.2,0.4,0.6,0.4,0.7c1.5,1,1.6,1.2,1.9,1.4
		C25.6,29.4,25.9,28.6,25.9,28.6z"/>
	<path fill="#2F7BBA" d="M27.5,25.4c0.1-0.1,0.3-0.1,0.5,0.1c0.2,0.3,0.4,0.7,0.4,1.6c0,0-0.1,1-0.3,1.3c-0.2,0.4-0.5,0.9-0.9,1
		c-0.2,0.1-1.2-0.4-1.5-1c-0.1-0.2,0.1-0.9,0.3-1.3C26.3,26.7,27,25.7,27.5,25.4z"/>
	<path fill="#020100" d="M29.7,24.2c0,0,1.1,0,1.1-1.6c0-1-0.1-1.9-0.8-2.4c-0.6-0.5-1.7-0.6-2.3-0.1c-0.5,0.5-0.9,1.2-0.5,2
		c0.2,0.3,0.4,0.7,0.6,0.8c0.1,0-0.1-0.3,0.2-0.4c0.1,0,0.3,0.1,0.3,0.2c0,0.2-0.1,0.5,0.1,0.7C29.2,24.3,29.7,24.2,29.7,24.2z"/>
	<polygon fill="#966744" points="12.9,29.3 15.3,27.8 16.1,28.3 13.7,29.7 	"/>
	<polygon fill="#C7936B" points="12.5,32.9 12.9,29.3 13.7,29.7 13.9,33.7 13.2,33.1 	"/>
	<polygon fill="#D89970" points="16.1,32.4 13.9,33.7 13.7,29.7 16.1,28.3 	"/>
	<polygon fill="#D89E75" points="17.5,31.2 19.8,29.9 19.8,32.8 17.5,34.4 	"/>
	<polygon fill="#EBB089" points="16.3,30 18.6,28.7 19.8,29.9 17.4,31.2 	"/>
	<polygon fill="#C0855D" points="15.2,30.3 16.3,30 17.5,31.2 17.5,34.5 15.4,33.3 	"/>
	<polygon fill="#BE8E6D" points="17.7,28.8 18.6,28.7 16.2,30 15.2,30.3 	"/>
	<path fill="#95B2CE" d="M15,20.1c0,0,0.1-1.7,0.5-2.1c0.4-0.4,0.6-0.5,0.8-0.5c0.3,0.1,0.7,1.2,0.7,1.7c0,0.5-0.1,1-0.1,1.1
		c-0.2,0.2-0.4,0.3-0.9,0.3S15,20.4,15,20.1z"/>
</g>
<g id="Layer_17">
</g>
<g id="Layer_16">
</g>
</svg>
