<?xml version="1.0" encoding="utf-8"?>
<!-- Generator: Adobe Illustrator 17.1.0, SVG Export Plug-In . SVG Version: 6.00 Build 0)  -->
<!DOCTYPE svg PUBLIC "-//W3C//DTD SVG 1.1//EN" "http://www.w3.org/Graphics/SVG/1.1/DTD/svg11.dtd">
<svg version="1.1" xmlns="http://www.w3.org/2000/svg" xmlns:xlink="http://www.w3.org/1999/xlink" x="0px" y="0px"
	 viewBox="0 0 50 50" enable-background="new 0 0 50 50" xml:space="preserve">
<g id="Layer_6">
</g>
<g id="grid" display="none">
</g>
<g id="Layer_4" display="none">
</g>
<g id="Layer_10">
</g>
<g id="Layer_8">
</g>
<g id="принятие_заказа">
	<g id="Layer_2">
	</g>
	<g id="Слой_1">
		<g id="Layer_7">
		</g>
	</g>
	<g id="Layer_1_1_">
	</g>
</g>
<g id="chef">
</g>
<g id="Layer_12" display="none">
</g>
<g id="Layer_14">
</g>
<g id="Layer_15">
</g>
<g id="Layer_18">
</g>
<g id="Layer_19">
</g>
<g id="Layer_19_copy">
</g>
<g id="Layer_21">
	<path fill="#DCEEFF" d="M24,24.4c0,0-0.1-1.3,0.8-1.4c0.9-0.1,1,1,1,0.8l0.5,2.8c0,0,0.1,0.4,0.2,0.5c0.2,0.2,0.6,0.2,0.8,0.2
		c0.4-0.1,1.8,0,1.8,0s0.5,0.2,0.7,0.6c0.3,0.6-0.5,0.8-0.9,1c-0.2,0.1-2.2-0.1-3.1,0.2c-0.3,0.1-0.8,1-1.2,0
		C24.1,27.8,24,24.4,24,24.4z"/>
	<path fill="#2D2D2D" d="M23.5,45.4c0,0.2,0,0.6,0.3,0.6c0.3,0,0.5,0,0.7,0c0.2,0,0.4,0.2,0.7,0.3c0.1,0.1,0.5,0.4,1.3,0.4
		c0.8,0,1.1-0.1,1-0.4c-0.1-0.4-1.2-0.8-1.3-1.1C26,45,24.8,44,24.8,44l-1,0.3C23.8,44.3,23.5,45.1,23.5,45.4z"/>
	<path fill="#2D2D2D" d="M16.3,42.2c-0.1,0.1-0.6,0.6-0.5,0.9c0.2,0.3,0.4,0.2,0.5,0.4s0.2,0.4,0.2,0.7c0,0.1,0,0.7,0.6,1.3
		c0.5,0.6,0.8,0.8,1,0.5c0.3-0.4-0.2-1.4-0.1-1.7c0.1-0.3,0-1.8,0-1.8l-0.9-0.6C17.2,41.8,16.6,42.1,16.3,42.2z"/>
	<path fill="#8590AA" d="M19.7,37.7c0,0,1.1-5.7,1.2-6.4c0.2-0.8,4.6,0.2,4.6,0.2s0.4,8.1,0.3,8.3c0,0.4,0.3,5.2,0.3,5.3
		c0,0.1-0.6,0.3-1.4,0.2c-0.9-0.1-1.2-0.4-1.2-0.7c0-0.3-0.2-8.2-0.2-8.2l-0.2-1.2c0,0-1.1,2.2-1.1,2.6s-0.1,1.1-0.3,1.4
		c-0.1,0.3-3.6,4.9-3.6,4.9s-0.9-0.1-1.3-0.4c-0.4-0.3-0.8-0.8-0.8-1.1C16,42.3,19.7,37.7,19.7,37.7z"/>
	<path fill="#8590AA" d="M20.9,31.3l-0.1-2L21,24c0,0,1.3-0.7,2.1-0.8c1.1-0.1,1.9-0.5,2.1-0.2s0.6,7.7,0.4,8.1
		c-0.2,0.4,0,1.8-0.1,1.9c-2,1.6-3.6-0.9-3.6-0.9L20.9,31.3z"/>
	<polygon fill="#F3FAFF" points="24.3,27.2 24.3,23.6 23.5,23.1 22.8,23.4 	"/>
	<path fill="#FFB4AB" d="M27.1,26.9c0,0,0.8-0.1,0.8,0.3c0,0.3-0.2,0.6-0.4,0.7c-0.3,0.1-1.4,0.5-1.5,0.4c-0.1-0.1-0.1-0.4-0.1-0.4
		l-0.2-0.4C25.7,27.6,26.7,26.9,27.1,26.9z"/>
	<path fill="#DCEEFF" d="M20.5,25.2c0,0-0.2-1.1,0.8-1.2c0.9,0,0.9,1.2,0.9,1.2l0.2,2.7c0,0,0,0.5,0.2,0.5c0.1,0,0.4-0.2,0.7-0.2
		c0.3-0.1,2.4-0.7,2.4-0.7s0.3,0.1,0.4,0.4c0.3,0.6,0.1,0.8-0.3,1.1c-0.2,0.1-2.3,1.1-3.2,1.4c-0.3,0.1-0.9,0.6-1.4-0.4
		C20.5,28.6,20.5,25.2,20.5,25.2z"/>
	<path fill="#F7ABA6" d="M22.6,22c0,0,0.3,0.5,0.2,0.9c-0.1,0.4,0,0.9,0.6,1c0.8,0.1,0.8-0.3,0.8-0.5c0-0.2-0.4-1.5-0.3-1.5H22.6z"
		/>
	<path fill="#060200" d="M24.5,19.2c0.3,0.2,0.8,1,0.6,1.3c-0.3,0.4-0.7,0.6-0.9,0.5c-0.2,0,0,0.4-0.3,0.6s-1,0.9-1.2,0.9
		c-0.5-0.1-0.9-1.1-0.9-1.9c0-0.6,0.5-1.2,0.7-1.3c0.4-0.3,1-0.3,1.2-0.3C24,18.9,24.3,19,24.5,19.2z"/>
	<path fill="#FFB4AB" d="M25.1,21.2c0-0.4-0.1-0.8-0.1-0.8s-0.5,0.2-0.6,0.2c-0.3,0.1-0.7-0.1-0.8-0.1c-0.3,0.1-0.3,0.9-0.3,1.1
		s-0.3,0.2-0.4,0c-0.1-0.2-0.2-0.3-0.3-0.2c-0.1,0-0.2,0.3-0.1,0.5c0.1,0.2,0.2,0.4,0.2,0.4c0.1,0.1,0.3,0.4,0.6,0.5
		c0.2,0.1,0.8,0.2,1.1,0.1c0.1-0.1,0.4-0.2,0.5-0.5C25,22.2,25.1,21.6,25.1,21.2z"/>
	<path fill="#F3FAFF" d="M22.9,28c0.2-0.3,2.1-1,2.5-0.8c0.3,0.2,0.7,2,0.7,2.9c0,0.8-2.7,2.1-3,1.4C22.9,31,22.6,28.5,22.9,28z"/>
	<path fill="#727E96" d="M33.9,26.5c0.2,0.2,0.5,0.7,0.5,1.1c0.1,0.4,0,1.1-1,1.7c-1,0.5-2.9,0.4-3.9,0c-0.7-0.4-0.8-0.7-0.9-1.1
		c-0.1-0.4,0.2-1.1,0.3-1.3c0.2-0.4,0.6-0.8,1.4-1.2c0.4-0.2,1.8-0.3,2.5,0C33.5,26,33.6,26.1,33.9,26.5z"/>
	<path fill="#8590AA" d="M34,26.7c0.2,0.2,0.4,0.6,0.5,0.9c0.1,0.3,0,1-0.9,1.4c-0.9,0.5-2.5,0.4-3.4,0c-0.6-0.3-0.7-0.6-0.8-0.9
		c-0.1-0.5,0.2-0.9,0.2-1.1c0.2-0.3,0.5-0.7,1.2-1c0.4-0.2,1.5-0.3,2.1,0C33.6,26.3,33.8,26.5,34,26.7z"/>
	<ellipse fill="#969FB2" cx="31.6" cy="26" rx="0.4" ry="0.4"/>
	<path fill="#F3FAFF" d="M21.5,31.8c0,0,0,5.3,0.1,6.2c0.1,0.5,1.6,0.4,2.4-0.1c0.8-0.5,2-0.7,2.1-0.9c0.1-0.1-0.5-6-0.5-6
		s-0.8,0.8-2,0.8c-1.3,0-2-0.2-2-0.2L20.9,31c0,0,0,0.2,0,0.3C20.9,31.5,21.5,31.8,21.5,31.8z"/>
</g>
<g id="Layer_22">
</g>
<g id="Layer_1" display="none">
</g>
<g id="Layer_17">
</g>
<g id="Layer_16">
</g>
</svg>
