<?xml version="1.0" encoding="utf-8"?>
<!-- Generator: Adobe Illustrator 17.1.0, SVG Export Plug-In . SVG Version: 6.00 Build 0)  -->
<!DOCTYPE svg PUBLIC "-//W3C//DTD SVG 1.1//EN" "http://www.w3.org/Graphics/SVG/1.1/DTD/svg11.dtd">
<svg version="1.1" xmlns="http://www.w3.org/2000/svg" xmlns:xlink="http://www.w3.org/1999/xlink" x="0px" y="0px"
	 viewBox="0 0 50 50" enable-background="new 0 0 50 50" xml:space="preserve">
<g id="Layer_6">
</g>
<g id="grid" display="none">
</g>
<g id="Layer_1">
</g>
<g id="Layer_4" display="none">
</g>
<g id="Layer_10">
</g>
<g id="Layer_8">
</g>
<g id="принятие_заказа">
	<g id="Layer_2">
	</g>
	<g id="Слой_1">
		<g id="Layer_7">
		</g>
	</g>
	<g id="Layer_1_1_">
	</g>
</g>
<g id="chef">
	<polygon fill="#727E96" points="17.2,40.5 17.2,48.4 12,45.4 12,37.4 	"/>
	<polygon fill="#8590AA" points="17.2,40.5 17.2,48.4 18.9,47.4 31.9,39.9 31.9,32 	"/>
	<polygon fill="#D6D6D6" points="26.7,29 31.9,32 27.1,34.8 17.2,40.5 12,37.4 	"/>
	<polygon fill="#B2B7C1" points="21.9,37.7 21.9,45.7 27,42.8 27,34.9 	"/>
	<polygon fill="#F9F9F9" points="21.7,31.8 27,34.9 21.9,37.7 16.7,34.7 	"/>
	<polygon fill="#020100" points="22,40.8 22,44.3 26.3,42 26.2,38.4 	"/>
	<path fill="#020100" d="M19.9,33.8c0.4,0,1.3,0.1,1.3,0.7c0,0.8-1.4,0.8-1.4,0.8s-1.4,0-1.3-0.8C18.6,33.8,19.5,33.8,19.9,33.8z"/>
	<path fill="#020100" d="M24,34.2c0.3,0,1.1,0.1,1.1,0.7c0,0.8-1.1,0.8-1.1,0.8s-1.2,0-1.1-0.8C22.9,34.3,23.7,34.2,24,34.2z"/>
	<path fill="#020100" d="M22,32.9c0.2,0,0.7,0.1,0.7,0.4c0,0.5-0.8,0.5-0.8,0.5s-0.8,0-0.8-0.5C21.2,33,21.8,32.9,22,32.9z"/>
	<polygon fill="#020100" points="26.3,36.3 26.2,35.8 22,38.2 22,38.6 	"/>
	<polygon fill="#020100" points="24,38.5 26.4,37.1 26.4,36.7 24,38 	"/>
	<path fill="#020100" d="M22,35.5c0.2,0,0.7,0.1,0.7,0.4c0,0.5-0.8,0.5-0.8,0.5s-0.8,0-0.8-0.5C21.2,35.6,21.8,35.5,22,35.5z"/>
	<path fill="#000102" d="M26,46.6c0,0-1-0.4-1,0c0,0.4,0.5,0.9,1,1.1s2,0.7,2.1,0c0-0.6-0.3-0.8-0.9-1.1S26,46.6,26,46.6z"/>
	<path fill="#000102" d="M28.2,45.7c0,0-1-0.4-1,0c0,0.4,0.5,0.9,1,1.1c0.5,0.2,2,0.7,2.1,0c0-0.6-0.3-0.8-0.9-1.1
		S28.2,45.7,28.2,45.7z"/>
	<path fill="#0B1119" d="M27.4,36.5l0.3,9.2c0,0,0.8,0.6,1.4,0.8c0.6,0.1,1.2,0.1,1.2,0.1l-0.1-10.3L27.4,36.5z"/>
	<path fill="#131A26" d="M25.2,37.4l0.3,9.2c0,0,0.8,0.6,1.4,0.8c0.6,0.1,1.2,0.1,1.2,0.1l-0.1-10.3L25.2,37.4z"/>
	<path fill="#FBB7AA" d="M24.2,27.9c0,0-0.7-0.9-1.1-0.8c-0.4,0.1-0.7,0.3-0.7,0.5s1.2,1,1.2,1l0.7-0.5L24.2,27.9z"/>
	<path fill="#DCEEFF" d="M26.2,28.8c0.7,0.1,2-0.3,2-0.3s1.6-0.6,2.1-0.3c0.5,0.4,0.4,0.7,0.4,0.8c0,0.2-0.1,0.3-0.4,0.6
		c-0.4,0.3-3.2,0.8-3.2,0.8s-0.7,0.3-1,0.2c-0.2,0-0.9-0.4-0.9-0.4l-1.4-1c0,0-0.4-0.4,0-0.8c0.4-0.4,0.4-0.4,0.4-0.4s0.2-0.1,0.5,0
		C24.8,28.1,25.8,28.8,26.2,28.8z"/>
	<path fill="#F3FAFF" d="M24.7,39.8l0.3-8c0,0,0.1-2.5,1.2-3c0.8-0.3,1.4-0.5,1.8-0.5c0.2,0,0.7-0.1,0.7-0.1s1.4-0.2,1.5,1.2
		s0.3,9.5,0.3,9.5s-2.1,1.1-4,1.2C25.4,40.3,24.7,39.8,24.7,39.8z"/>
	<path fill="#FBB7AA" d="M21.5,32.3c0,0-0.3-0.4-0.6-0.4s-0.7-0.1-0.9-0.1s-0.6,0.3-0.5,0.5c0,0.2,0.1,0.4,0.5,0.5s0.7,0.2,1.1,0.2
		c0.3,0,0.4-0.1,0.4-0.1V32.3z"/>
	<path fill="#DCEEFF" d="M23.8,31.8c0.6-0.3,1.7-2.1,1.7-2.1s0.5-0.6,1.1-0.5c0.6,0.1,0.8,0.2,0.9,0.3c0.1,0.2,0.1,0.3,0,0.6
		c-0.2,0.5-2.2,2.6-2.2,2.6s-0.5,0.6-0.7,0.7c-0.2,0.1-1,0.1-1,0.1l-1.7-0.1c0,0-0.6-0.1-0.4-0.7s0.2-0.5,0.2-0.5s0.1-0.3,0.4-0.3
		C22.2,31.9,23.4,32,23.8,31.8z"/>
	<path fill="#FBB7AA" d="M28.4,27.8v0.5c0,0,0,0.3-0.4,0.4c-0.4,0.1-0.8-0.1-0.8-0.1l0-0.7L28.4,27.8z"/>
	<path fill="#FBB7AA" d="M26.9,25c0,0-0.4,0.1-0.4,0.5c0,0.4-0.1,1,0,1.3c0.1,0.3,0.1,0.8,0.3,1c0.2,0.2,0.6,0.3,0.8,0.2
		c0.3-0.1,0.8-0.2,1-0.5s0.5-1.5,0.5-1.8s-0.3-0.6-0.7-0.7C28.1,24.8,26.9,25,26.9,25z"/>
	<path fill="#02080F" d="M26.9,24.5c0,0-0.5,0-0.6,0.2s-0.2,0.2-0.1,0.5c0.1,0.2,0.4,0.5,0.6,0.4c0.3-0.1,0.5,0,0.4,0.1
		c-0.1,0.1-0.3,0.2-0.2,0.4c0.1,0.1,0.3,0.5,0.6,0.3s0.3-0.4,0.5-0.2c0.1,0.1,0,0.5-0.1,0.6c-0.1,0.1-0.3-0.1-0.1,0.2
		s0.4,0.2,0.4,0.3s0,0.3-0.1,0.5c-0.1,0.2-0.2,0.2,0,0.3c0.1,0.1,0.5,0.1,0.9-0.2c0.1,0,0.5-0.3,0.6-0.5c0.1-0.2,0.5-0.8,0.3-1.4
		c-0.2-0.6-0.3-1.2-0.3-1.2L26.9,24.5z"/>
	<path fill="#DCEEFF" d="M26.8,23.9l-0.1,1c0,0-0.2,0.9,0.8,1s1.4,0.2,1.7,0.1c0.2,0,0.8,0,0.9-0.3c0.1-0.4,0.1-1.5,0.1-1.5l0.1-0.4
		L28,23.3c0,0-1,0-1.1,0C26.8,23.3,26.8,23.9,26.8,23.9z"/>
	<path fill="#F3FAFF" d="M27.7,21.5c0,0,0.5-0.5,1.2-0.4c0.6,0.1,0.8,0.4,1.2,1.1c0.1,0.1,0.4,0.1,0.4,0.1c0.3,0,1,0.4,1.1,0.6
		c0.2,0.6,0.1,0.6,0.1,0.9c-0.1,0.5-0.7,0.8-1.1,0.7c-0.4,0-0.4-0.2-0.5-0.1c-0.3,0.1-0.2,0.2-0.4,0.5c-0.3,0.3-0.8,0.3-1.4,0.1
		c-0.6-0.2-0.8-0.4-0.9-1c-0.1-0.7-0.3-0.4-0.6-0.5c-0.4-0.1-0.9-0.7-0.6-1.3c0.3-0.5,0.4-0.6,0.7-0.7
		C27.1,21.4,27.7,21.5,27.7,21.5z"/>
	<polygon fill="#727E96" points="14.6,22.7 14.6,30.6 15.5,31.1 15.5,23.2 	"/>
	<polygon fill="#D6D6D6" points="22.4,19.2 15.5,23.2 15.5,31.1 17.2,30.1 22.4,27.1 	"/>
	<g>
		<g>
			<polygon fill="#969FB2" points="21.6,18.8 14.6,22.7 15.5,23.2 22.4,19.2 			"/>
		</g>
	</g>
	<polygon fill="#F9F9F9" points="22,20.1 16,23.5 16,30.4 17.5,29.6 22,27 	"/>
	<path fill="#D8C89C" d="M18.4,22.5l-1.9,1c-0.1,0.1-0.2,0.2-0.2,0.3v1.9c0,0.3,0.3,0.4,0.5,0.3l1.9-1c0.1-0.1,0.2-0.2,0.2-0.3v-1.9
		C18.9,22.5,18.6,22.4,18.4,22.5z"/>
	<path fill="#D8C89C" d="M18.4,25.9l-1.9,1c-0.1,0.1-0.2,0.2-0.2,0.3v1.9c0,0.3,0.3,0.4,0.5,0.3l1.9-1c0.1-0.1,0.2-0.2,0.2-0.3v-1.9
		C18.9,25.9,18.6,25.8,18.4,25.9z"/>
	<path fill="#D8C89C" d="M19.4,23.1v4.1c0,0.2,0.2,0.4,0.5,0.3l1.6-0.9c0.1-0.1,0.2-0.2,0.2-0.3v-4.1c0-0.2-0.2-0.4-0.5-0.3
		l-1.6,0.9C19.4,22.9,19.4,23,19.4,23.1z"/>
	<polygon fill="#8E8366" points="18.9,22.9 17.2,23.8 17.2,24 18.9,23.1 	"/>
	<polygon fill="#8E8366" points="18.9,23.4 17.2,24.3 17.2,24.4 18.9,23.6 	"/>
	<polygon fill="#8E8366" points="18.9,23.8 17.2,24.7 17.2,24.9 18.9,24 	"/>
	<polygon fill="#8E8366" points="18.9,26.4 17.2,27.3 17.2,27.5 18.9,26.6 	"/>
	<polygon fill="#8E8366" points="18.9,26.8 17.2,27.7 17.2,27.9 18.9,27 	"/>
	<polygon fill="#8E8366" points="18.9,27.3 17.2,28.2 17.2,28.3 18.9,27.4 	"/>
	<polygon fill="#8E8366" points="19.8,23.2 19.8,23.4 21.1,22.7 21.1,22.5 	"/>
	<polygon fill="#8E8366" points="19.8,23.6 19.8,23.8 21.1,23.1 21.1,22.9 	"/>
	<polygon fill="#8E8366" points="19.8,24 19.8,24.2 21.1,23.6 21.1,23.4 	"/>
	<polygon fill="#8E8366" points="19.8,25.3 19.8,25.5 21.1,24.9 21.1,24.7 	"/>
	<polygon fill="#8E8366" points="19.8,25.8 19.8,25.9 21.1,25.3 21.1,25.1 	"/>
	<polygon fill="#8E8366" points="19.8,26.2 19.8,26.4 21.1,25.7 21.1,25.5 	"/>
	<polygon fill="#8E8366" points="19.8,26.6 19.8,26.8 21.1,26.1 21.1,26 	"/>
	<polygon fill="#8590AA" points="18.1,36.4 16.9,37.1 16.9,38.1 18.1,37.4 	"/>
	<polygon fill="#727E96" points="16.9,37.1 15.1,36.2 15.1,37 16.9,38.1 	"/>
	<polygon fill="#8D9AB2" points="18.1,36.4 16.2,35.6 15.1,36.2 16.9,37.1 	"/>
	<path fill="#B2B7C1" d="M16.8,36.8l0.6-0.3c0,0-0.4-0.7-0.5-0.8c-0.1-0.1-0.6-0.4-0.6-0.4l-0.6,0.4c0,0,0.6,0.3,0.7,0.5
		S16.8,36.8,16.8,36.8z"/>
</g>
<g id="Layer_12" display="none">
</g>
<g id="Layer_14">
</g>
<g id="Layer_15">
</g>
<g id="Layer_17">
</g>
<g id="Layer_16">
</g>
</svg>
