<?xml version="1.0" encoding="utf-8"?>
<!-- Generator: Adobe Illustrator 17.1.0, SVG Export Plug-In . SVG Version: 6.00 Build 0)  -->
<!DOCTYPE svg PUBLIC "-//W3C//DTD SVG 1.1//EN" "http://www.w3.org/Graphics/SVG/1.1/DTD/svg11.dtd">
<svg version="1.1" xmlns="http://www.w3.org/2000/svg" xmlns:xlink="http://www.w3.org/1999/xlink" x="0px" y="0px"
	 viewBox="0 0 50 50" enable-background="new 0 0 50 50" xml:space="preserve">
<g id="Layer_6">
</g>
<g id="grid" display="none">
</g>
<g id="Layer_4" display="none">
</g>
<g id="Layer_10">
</g>
<g id="Layer_8">
</g>
<g id="принятие_заказа">
	<g id="Layer_2">
	</g>
	<g id="Слой_1">
		<g id="Layer_7">
		</g>
	</g>
	<g id="Layer_1_1_">
	</g>
</g>
<g id="chef">
</g>
<g id="Layer_12" display="none">
</g>
<g id="Layer_14">
</g>
<g id="Layer_15">
</g>
<g id="Layer_18">
</g>
<g id="Layer_19">
</g>
<g id="Layer_19_copy">
	<path fill="#1F2022" d="M19.4,41.1c0,0,0,0.6,0.1,0.8c0.1,0.3,0.6,0.2,0.8,0.2c0.2-0.1,0.6-0.2,0.8-0.2s1.2-0.4,1.4-0.6
		c0.3-0.3,0.5-0.6,0.4-0.7c0-0.2-0.3-0.3-0.4-0.3c-0.1,0-0.8,0.2-1,0.3c-0.2,0.1-0.8,0.4-1.1,0.6C20.3,41.3,19.4,41.1,19.4,41.1z"/>
	<g>
		<g>
			<polygon opacity="0.76" fill="#6F7E93" points="16.2,37 16.1,37.1 16.2,37.1 			"/>
			<path fill="#6F7E93" d="M19.4,39c0,1,0,1.8,0,1.9c0,0.3,0.6,0.4,1.1,0.4c0.6,0,1-0.8,1-0.8s0-0.5-0.1-1.5H19.4z"/>
		</g>
	</g>
	<path fill="#FFB4AB" d="M23.7,26.2c0,0.2,0.2,0.7,0.6,0.6s0.5-0.5,0.5-0.8s-0.1-1.2-0.4-1.5c-0.3-0.3-0.8-0.1-0.8-0.1
		S23.6,25.8,23.7,26.2z"/>
	<path fill="#DCEEFF" d="M21.9,16.2c0,0-0.2-0.8,0.2-0.8c0.5-0.1,0.9,0.4,1,0.7c0.1,0.4,1,5.2,1.1,5.3c0,0.1,0.8,2.9,0.7,3.2
		C24.7,24.8,24.3,25,24,25c-0.3,0-0.7,0-0.8-0.7C23,23.6,22,18.9,22,18.9L21.9,16.2z"/>
	<path fill="#8590AA" d="M18.3,29.7L18,21.9l0.1-5.5c0,0,1.3-0.7,2.2-0.8c1.2-0.1,2-0.5,2.2-0.2c0.2,0.4,0.6,8,0.4,8.3
		c-0.2,0.4,0.2,10.9,0.2,11c0.2,4.2-2.4,2.5-2.4,2.5L18.3,29.7z"/>
	<path fill="#424F5B" d="M18.9,35.3c0,0,1.7-0.4,1.9-0.4c0.5,0,0.9-0.2,1.4,0c0.5,0.3,0.6,1.3,0.6,2c0,0.3,0,5.4,0,5.4
		s-0.5,0.6-1,0.6s-1.1,0-1.1-0.2c0-0.3,0-5,0-5s-0.3-0.4-0.8-0.1c-0.4,0.2-2.4,1-2.4,1L18.9,35.3"/>
	<polygon fill="#F3FAFF" points="21.5,19.7 21.5,16.1 20.7,15.5 20,15.8 	"/>
	<polygon fill="#301409" points="20.3,19 23.1,18.1 23.3,23.1 20.7,24.1 	"/>
	<path fill="#FFB4AB" d="M24.4,19.4c0,0,0.8-0.1,0.8,0.4c0,0.4-0.2,0.6-0.4,0.8c-0.3,0.1-1.5,0.5-1.6,0.4s-0.1-0.4-0.1-0.4L23,20.2
		C23,20.2,24,19.5,24.4,19.4z"/>
	<path fill="#DCEEFF" d="M17.6,17.6c0,0-0.2-1.2,0.8-1.2c1-0.1,0.9,1.2,0.9,1.2l0.2,2.8c0,0,0.1,0.5,0.2,0.5c0.1,0,0.4-0.2,0.7-0.2
		c0.3-0.1,2.5-0.8,2.5-0.8s0.3,0.1,0.4,0.4c0.3,0.6,0.1,0.8-0.4,1.1c-0.2,0.1-2.4,1.1-3.3,1.4c-0.4,0.1-1,0.6-1.4-0.4
		C17.6,21.2,17.6,17.6,17.6,17.6z"/>
	<path fill="#F7ABA6" d="M19.8,14.4c0,0,0.3,0.5,0.2,1c-0.1,0.4,0,1,0.7,1c0.9,0.1,0.8-0.3,0.8-0.5c0-0.2-0.4-1.5-0.4-1.5H19.8z"/>
	<path fill="#1F2022" d="M21.7,36.6c0,0-0.4,0.4-0.5,0.7c-0.1,0.3,0.2,0.6,0.4,0.7c0.2,0.1,0.5,0.2,0.7,0.4c0.2,0.1,1.1,0.6,1.5,0.6
		c0.4,0,0.7-0.1,0.8-0.2c0.1-0.1,0-0.4-0.1-0.5s-0.7-0.4-0.9-0.5s-0.9-0.3-1.2-0.3C22.2,37.3,21.7,36.6,21.7,36.6z"/>
	<path fill="#060200" d="M21.7,11.4c0.3,0.3,0.8,1,0.6,1.3c-0.3,0.4-0.7,0.6-0.9,0.6s0,0.4-0.3,0.6c-0.3,0.2-1.1,0.9-1.3,0.9
		c-0.5-0.1-0.9-1.1-1-1.9c0-0.6,0.5-1.2,0.7-1.3c0.4-0.3,1.1-0.3,1.3-0.3C21.2,11.2,21.6,11.3,21.7,11.4z"/>
	<path fill="#FFB4AB" d="M22.4,13.6c0-0.4-0.1-0.8-0.1-0.8s-0.5,0.2-0.6,0.2c-0.3,0.1-0.7-0.1-0.9-0.1c-0.3,0.1-0.3,1-0.3,1.2
		c-0.1,0.2-0.3,0.2-0.4,0c-0.1-0.2-0.2-0.3-0.3-0.3s-0.3,0.3-0.1,0.5s0.2,0.4,0.2,0.4c0.1,0.1,0.3,0.4,0.6,0.5
		c0.2,0.1,0.9,0.2,1.1,0.1c0.1-0.1,0.4-0.2,0.5-0.5C22.3,14.6,22.4,14,22.4,13.6z"/>
	<path fill="#F3FAFF" d="M22.9,23.9c0,0-1.7,0.9-2.4,1.1c-0.4,0.1-2.2,0.2-2.4,0.3c-0.2,0.1-0.2,1.9-0.2,2.3c0,0.4,0.1,2.3,0.4,2.9
		c0.2,0.6,0.4,1.2,0.4,1.2l1,0.3l2.3-1.1l0.8-0.8l0.8-0.6L22.9,23.9z"/>
	<path fill="#301409" d="M20.4,39.9L20.4,39.9l0.1,5l0.8,0.4c0,0,0.1-2.5,0.1-5.3H20.4z"/>
	<polygon fill="#EDD7C9" points="13.3,38.9 17.3,36.4 22.1,39 17.8,42 	"/>
	<polygon fill="#4F2612" points="17.8,42.7 21.8,40.2 21.9,39.2 17.6,41.5 	"/>
	<polygon fill="#4F2612" points="21.9,44.8 21.9,39.2 21.3,39.8 21.3,45.2 	"/>
	<polygon fill="#4F2612" points="18.2,46.9 18.2,41.5 17.6,41.5 17.6,47.1 	"/>
	<path fill="#301409" d="M36.5,22.7c0-0.6-0.8-0.9-1.9-1.6c-1.2-0.7-2.4-1.3-2.4-0.7c0,1.9,0,12.8,0,12.8l0.8,0.3l0-4.6l2.7,1.5
		l0,4.7l0.9,0.5C36.5,35.6,36.5,26.3,36.5,22.7z M32.5,22.6v-1.2l3.3,2V25l-3.3-1.9L32.5,22.6z M35.8,29.2l-3.3-1.9v-0.2v-2.9
		l3.3,1.9L35.8,29.2z"/>
	<path fill="#301409" d="M35.6,31l-0.2,0.3l0,4.7l0.5,0.4c0,0,0-2.7,0-5.5L35.6,31z"/>
	<polygon fill="#4F2612" points="32.2,34.1 36.5,31.4 36.5,30.2 32,32.9 	"/>
	<polygon fill="#4F2612" points="36.5,36 36.5,30.4 35.9,30.9 35.9,36.4 	"/>
	<polygon fill="#4F2612" points="32.7,38.2 32.7,32.9 32,32.9 32,38.5 	"/>
	<polygon fill="#EDD7C9" points="27.7,30.3 32.2,27.7 36.5,30.2 31.8,33.3 	"/>
	<path fill="#301409" d="M31.5,33.1l0.1,0.2l0,5l0.5,0.3c0,0,0-2.7,0-5.5L31.5,33.1z"/>
	<path fill="#301409" d="M29.1,40.6c0,0.8-1,1.3-2.2,1.3s-2.2-0.4-2.2-1.3c0-0.8,1-1.3,2.2-1.3S29.1,39.9,29.1,40.6z"/>
	<path fill="#4F2612" d="M29.1,40.3c0,0.7-1,1.3-2.2,1.3s-2.2-0.6-2.2-1.3c0-0.8,1-1.2,2.2-1.2S29.1,39.6,29.1,40.3z"/>
	<path fill="#5B2D1A" d="M27.7,36.2c0,0,0,3.1,0,4.1c0,0.2-0.2,0.5-0.8,0.5c-0.5,0-0.8-0.1-0.8-0.4c0-1.1,0-4.2,0-4.2l0.8-1.5
		L27.7,36.2z"/>
	<path fill="#D35375" d="M30.2,22.7c0,0-0.6,3-1.5,3.7c-0.2,0.2-1.9,0.6-1.9,0.6l1.1,0.7c0,0,1-0.5,1.2-0.7c0.3-0.3,0.9-1.2,0.9-1.2
		l0.6-2L30.2,22.7z"/>
	<path fill="#BB3753" d="M33.9,23.5c0.8,0.5,0.1,4.1,0.1,4.1s0.4,2.6,0.3,2.9c-0.1,0.1-1.1,1-1.1,1L30.9,31l-1-0.3l-0.3-2.1
		c0,0,0.4-0.8,0.5-1.1c0.1-0.2,0.3-0.9,0.1-1.2c-0.1-0.2-0.6-0.4-0.5-1.3c0.2-0.8,0.3-1.7,0.3-1.7s0-0.8,0.5-0.7
		c0.5,0.1,1.6,0.3,1.6,0.3S33.1,23.1,33.9,23.5z"/>
	<path fill="#F7ABA6" d="M29.8,34.1c0,0-0.2,2.4-0.2,2.5c0,0.2,0,0.7,0,0.8L29,38.6L28.4,39L28,38.7c0,0,0.1,0.1,0.4-0.3
		c0.1-0.1,0.3-0.4,0.4-0.9c0.1-0.6,0.1-0.7,0.1-1c0-0.4-0.3-1.9-0.3-1.9L29.8,34.1z"/>
	<path fill="#F7ABA6" d="M31,34.5c0,0-0.2,2.4-0.2,2.5c0,0.2,0,0.8,0,0.8L30.3,39l-0.6,0.4l-0.5-0.3c0,0,0.1,0.1,0.4-0.3
		c0.1-0.1,0.4-0.4,0.5-0.9c0.2-0.5,0.1-0.6,0.1-0.9c0-0.4-0.2-2.1-0.2-2.1L31,34.5z"/>
	<path fill="#060200" d="M30.5,38.2c-0.1,0.2-0.3,0.7-0.5,0.9c-0.2,0.2-0.6,0-0.7,0c-0.1,0-0.2-0.1-0.1,0.2s0.7,0.3,1,0.1
		c0.1-0.1,0.4-0.5,0.4-0.6c0-0.1,0,0.4,0,0.4l0.2-0.2c0,0,0-0.6,0.1-1c0-0.1,0-0.1,0-0.3C30.8,37.7,30.6,38,30.5,38.2z"/>
	<path fill="#301409" d="M34,32.1c0,2.3-3.2,4.2-7.1,4.2s-7.1-1.9-7.1-4.2c0-2.6,3.2-3.8,7.1-3.8S34,29.8,34,32.1z"/>
	<path fill="#4F2612" d="M34,31.6c0,2.3-3.2,4.2-7.1,4.2s-7.1-1.9-7.1-4.2c0-2.6,3.2-3.8,7.1-3.8S34,29.4,34,31.6z"/>
	<path fill="#060200" d="M29.5,21.3c0,0,0.6-0.3,0.7-0.7s0-1.4,1-2.1c1-0.7,1.8-0.3,2.2-0.1c0.8,0.3,1.3,3.1,1.2,3.4
		c-0.1,1.1-1.9,0.4-2.6,0.4C29.6,22.3,29.5,21.6,29.5,21.3z"/>
	<path fill="#F7ABA6" d="M31.3,24.8c0.4,0.1,1.2-0.9,1.4-1c0.2-0.2,0.5-0.6,0.4-0.6c-0.1,0-0.2-0.1-0.4-0.2c-0.2-0.1-0.1-1-0.1-1
		l-1.4-0.1c0,0,0.2,0.9-0.3,0.9c-0.1,0-0.1,1.4,0,1.7C31.1,24.6,31.1,24.8,31.3,24.8z"/>
	<path fill="#FFB4AB" d="M32.1,19.4c0,0-0.2,0.7-0.5,0.8c-0.4,0-0.9,0.2-0.9,0.1s-0.2,0.9-0.1,1.1c0.1,0.4,0.3,1.1,0.8,1.1
		c0.5,0,1.2-0.3,1.3-0.5s0-1.9-0.2-2.1C32.2,19.6,32.1,19.4,32.1,19.4z"/>
	<path fill="#F7ABA6" d="M28.6,28.4c-0.2-0.1-0.3-0.2-0.2-0.5c0.1-0.3,0.3-0.3,0.5-0.3c0.2,0.1,0.6,0.3,0.8,0.4c0.2,0,0.5,0,0.6,0
		c0.1,0,0,0.4,0,0.4s-0.5,0.2-0.9,0.1C28.9,28.5,28.7,28.4,28.6,28.4z"/>
	<path fill="#D35375" d="M33.3,24.4c0-0.3,0.1-0.9,0.5-0.9c0.5,0,0.7,0.6,0.7,0.9c0,0.3-0.2,4.2-0.4,4.5c-0.2,0.3-3.6-0.2-3.9-0.3
		c-0.3-0.1-0.3-0.3-0.3-0.5c0-0.2,0.1-0.2,0.2-0.3c0.6-0.2,2.4,0.3,2.4,0.3s0.6,0.1,0.7,0c0.1-0.1,0.1-0.5,0.1-0.5
		S33.3,25.4,33.3,24.4z"/>
	<path fill="#FFB4AB" d="M22.9,33.7c0,0,0.4-0.5,0.6-0.7c0.3-0.3,0.7-0.2,0.9-0.2c0.3,0,0.4,0.1,0.5,0.3c0.1,0.1,0.1,0.4,0,0.6
		c-0.2,0.2-0.6,0.4-0.8,0.5s-0.3,0.1-0.5,0.1C23.4,34.3,22.9,33.7,22.9,33.7z"/>
	<path fill="#FFB4AB" d="M20.8,31.3c0,0,0.1,0.3,0.6,0.6c0.3,0.2,0.8,0.2,1,0.1c0.2-0.1,0.4-0.7-0.2-1c-0.6-0.3-1.2-0.3-1.3-0.3
		c-0.1,0-0.4,0.3-0.4,0.3L20.8,31.3"/>
	<path fill="#1F2022" d="M21.9,44c0,0,0,0.6,0.1,0.8c0.1,0.3,0.6,0.2,0.8,0.2c0.2-0.1,0.5-0.2,0.8-0.2c0.2,0,1.2-0.4,1.4-0.6
		c0.3-0.3,0.5-0.6,0.4-0.7c0-0.2-0.3-0.3-0.4-0.3c-0.1,0-0.8,0.2-1,0.3c-0.2,0.1-0.8,0.4-1.1,0.6S21.9,44,21.9,44z"/>
	<path fill="#4C5968" d="M20.1,36.5c0,0,1.7-0.4,1.9-0.4c0.5,0,0.9-0.2,1.4,0c0.5,0.3,0.6,1.3,0.6,2c0,0.3,0,5.4,0,5.4
		s-0.5,0.6-1,0.6c-0.6,0-1.1,0-1.1-0.2c0-0.3,0-5,0-5s-0.3-0.4-0.8-0.1c-0.4,0.2-2.4,1-2.4,1L20.1,36.5"/>
	<path fill="#515F6D" d="M19.9,30c0,0,0.8,0.3,1,0.4c0.1,0.1,0.5,0.1,0.4,0.3c-0.1,0.1-0.3,0.6-0.5,0.7c-0.1,0.1-0.7-0.2-0.7-0.2
		l-0.9-0.3L19,30.4V30l0.2-0.3L19.9,30z"/>
	<path fill="#4C5968" d="M14.9,30.6c0,0,0-1.8,1.4-1.7s2.7,0.6,3,0.8c0.4,0.2,0.5,0.7,0.5,0.7l0.6,6.1l0.2,2.3c0,0-1.5,0.8-1.9,1
		c-0.4,0.2-1.7,0.2-2.1,0c-0.5-0.2-1.7-0.9-1.9-1.4c-0.1-0.4,0.1-4.4,0.1-4.4L14.9,30.6z"/>
	<path fill="#515F6D" d="M18.4,31.4c0,0-0.3-0.9,0.8-1.1c0.6-0.1,0.7,0.1,0.8,0.3c0.1,0.2,0.8,2.7,0.8,2.7s0.3,1,0.5,1
		c0.2,0,0.7-0.5,0.8-0.5c0.1-0.1,0.6-0.5,0.8-0.3c0.2,0.2,0.9,0.8,0.7,1.1S21.1,36,21.1,36s-0.7,0.5-1-0.3
		C19.8,34.9,18.4,31.4,18.4,31.4z"/>
	<polygon fill="#F7ABA6" points="16.7,29.2 16.8,27.8 18.4,28.1 18.4,29 17.6,29.6 	"/>
	<path fill="#FFB4AB" d="M19.3,25.1c0,0,0.3,0.7,0.2,1.6s-0.1,1.2-0.3,1.6c-0.2,0.4-1.4,0.6-1.9-0.6c-0.7-1.6,0.3-2.2,0.3-2.2
		L19.3,25.1z"/>
	<path fill="#301409" d="M17.5,28.7c-0.4-0.1-0.8-0.3-1.4-0.9c-0.7-0.7-0.6-1.4-0.6-1.9c0-0.5,0.4-1.3,1-1.6
		c0.6-0.4,1.3-0.6,2.3-0.1c1,0.5,1,1,1,1.2c-0.1,0.2-0.6,0.2-0.7,0.2c-0.1,0-0.3,0.1-0.4,0.3c0,0.2,0.1,0.6,0,0.6
		c-0.2,0.2-0.6-0.2-0.7,0c-0.1,0.1-0.1,0.5-0.1,0.6c0,0.2,0.1,0.3,0,0.5c-0.1,0.2-0.2,0.4-0.2,0.6c0,0.2,0.2,0.7,0.2,0.7
		C17.8,28.8,17.5,28.7,17.5,28.7z"/>
	<path fill="#515F6D" d="M16.4,29.4c-0.1-0.1-0.3-0.5,0-0.6c0.2-0.1,0.3,0,0.3,0.1s0.4,0.3,0.7,0.3c0.5,0,0.7-0.1,0.8-0.2
		c0.1-0.1,0.3-0.1,0.4,0.1c0.1,0.1,0.2,0.3,0.1,0.4c-0.1,0.1-0.6,0.5-1.3,0.4C16.8,29.9,16.6,29.7,16.4,29.4z"/>
	<path fill="#301409" d="M17.6,34.2c0-0.6-0.8-0.9-1.9-1.6c-1.2-0.7-2.4-1.3-2.4-0.7c0,1.9,0,12.8,0,12.8l0.8,0.3l0-4.6l2.7,1.5
		l0,4.7l0.9,0.5C17.6,47.2,17.7,37.8,17.6,34.2z M13.7,34.1v-1.2l3.3,2v1.3l-3.3-1.9V34.1z M17,40.7l-3.3-1.9v-0.2v-2.9l3.3,1.9
		L17,40.7z"/>
	<path fill="#060200" d="M29.3,37.8c-0.1,0.2-0.3,0.7-0.5,0.9c-0.2,0.2-0.6,0-0.7,0c-0.1,0-0.2-0.1-0.1,0.2s0.7,0.3,1,0.1
		c0.1-0.1,0.4-0.5,0.4-0.6c0-0.1,0,0.4,0,0.4l0.2-0.2c0,0,0-0.6,0.1-1c0-0.1,0-0.1,0-0.3C29.6,37.3,29.3,37.6,29.3,37.8z"/>
	<g>
		<path fill="#BED4E5" d="M25.1,32c0,0.5-0.5,0.8-1.2,0.8s-1.2-0.3-1.2-0.8c0-0.4,0.5-0.5,1.2-0.5S25.1,31.6,25.1,32z"/>
		<ellipse fill="#F3FAFF" cx="23.9" cy="32" rx="1.2" ry="0.7"/>
		<ellipse fill="#BED4E5" cx="23.9" cy="32.1" rx="0.6" ry="0.3"/>
		<path fill="#DCEEFF" d="M23.5,32.2c0,0,0.1,0.1,0.3,0.1s0.3-0.1,0.3-0.1s0.4-0.1,0.4-0.5c0.1-0.3,0.1-0.4,0-0.5
			c0-0.1-0.3-0.3-0.7-0.3c-0.4,0-0.7,0.2-0.7,0.3c0,0.1,0,0.2,0,0.3c0,0.1,0.1,0.3,0.1,0.4C23.3,32,23.5,32.2,23.5,32.2z"/>
		<ellipse fill="#F3FAFF" cx="23.9" cy="31.3" rx="0.6" ry="0.3"/>
		<path fill="#D5E8F7" d="M23.2,31.4c0,0-0.1-0.1-0.1-0.1c0,0,0,0.1,0,0.2c0,0.1,0.1,0.3,0.1,0.3l0.1,0.1l0,0.1c0,0-0.2-0.2-0.2-0.3
			c0-0.1-0.1-0.2-0.1-0.3s0.1-0.2,0.1-0.2c0,0,0.1,0,0.2,0.1C23.2,31.3,23.2,31.4,23.2,31.4"/>
	</g>
	<g>
		<path fill="#BED4E5" d="M28.8,29.5c0,0.5-0.5,0.8-1.2,0.8s-1.2-0.3-1.2-0.8c0-0.4,0.5-0.5,1.2-0.5S28.8,29.1,28.8,29.5z"/>
		<ellipse fill="#F3FAFF" cx="27.6" cy="29.5" rx="1.2" ry="0.7"/>
		<ellipse fill="#BED4E5" cx="27.6" cy="29.6" rx="0.6" ry="0.3"/>
		<path fill="#DCEEFF" d="M27.2,28c0,0,0.1,0.1,0.3,0.1s0.3-0.1,0.3-0.1s0.4-0.1,0.4-0.5c0.1-0.3,0.1-0.4,0-0.5
			c0-0.1-0.3-0.3-0.7-0.3s-0.7,0.2-0.7,0.3c0,0.1,0,0.2,0,0.3c0,0.1,0.1,0.3,0.1,0.4C27,27.9,27.2,28,27.2,28z"/>
		<ellipse fill="#F3FAFF" cx="27.6" cy="27.2" rx="0.6" ry="0.3"/>
		<path fill="#D5E8F7" d="M26.9,27.3c0,0-0.1-0.1-0.1-0.1s0,0.1,0,0.2c0,0.1,0.1,0.3,0.1,0.3l0.1,0.1l0,0.1c0,0-0.2-0.2-0.2-0.3
			c0-0.1-0.1-0.2-0.1-0.3s0.1-0.2,0.1-0.2c0,0,0.1,0,0.2,0.1C26.9,27.2,26.9,27.3,26.9,27.3"/>
	</g>
	<path fill="#F7ABA6" d="M26.6,27.4c0,0.2,0.2,0.3,0.3,0.3c0.1,0,0.3-0.3,0.2-0.7c0-0.2-0.5-0.4-0.5-0.3S26.5,27.1,26.6,27.4z"/>
</g>
<g id="Layer_21">
</g>
<g id="Layer_22">
</g>
<g id="Layer_1" display="none">
</g>
<g id="Layer_17">
</g>
<g id="Layer_16">
</g>
</svg>
