<?xml version="1.0" encoding="utf-8"?>
<!-- Generator: Adobe Illustrator 17.1.0, SVG Export Plug-In . SVG Version: 6.00 Build 0)  -->
<!DOCTYPE svg PUBLIC "-//W3C//DTD SVG 1.1//EN" "http://www.w3.org/Graphics/SVG/1.1/DTD/svg11.dtd">
<svg version="1.1" xmlns="http://www.w3.org/2000/svg" xmlns:xlink="http://www.w3.org/1999/xlink" x="0px" y="0px"
	 viewBox="0 0 50 50" enable-background="new 0 0 50 50" xml:space="preserve">
<g id="Layer_6">
</g>
<g id="grid" display="none">
</g>
<g id="Layer_4" display="none">
</g>
<g id="Layer_10">
</g>
<g id="Layer_8">
</g>
<g id="принятие_заказа">
	<g id="Layer_2">
	</g>
	<g id="Слой_1">
		<g id="Layer_7">
		</g>
	</g>
	<g id="Layer_1_1_">
	</g>
</g>
<g id="chef">
</g>
<g id="Layer_12" display="none">
</g>
<g id="Layer_14">
</g>
<g id="Layer_15">
</g>
<g id="Layer_18">
</g>
<g id="Layer_19">
	<path fill="#1F2022" d="M20.1,40.7c0,0,0,0.6,0.1,0.8c0.1,0.3,0.6,0.2,0.8,0.2c0.2-0.1,0.6-0.2,0.8-0.2c0.2,0,1.1-0.4,1.4-0.6
		c0.3-0.3,0.5-0.6,0.4-0.7c0-0.2-0.3-0.3-0.4-0.3c-0.1,0-0.8,0.2-1,0.3c-0.2,0.1-0.8,0.4-1.1,0.6C21,40.9,20.1,40.7,20.1,40.7z"/>
	<g>
		<g>
			<polygon opacity="0.76" fill="#6F7E93" points="16.9,36.7 16.8,36.7 16.9,36.7 			"/>
			<path fill="#6F7E93" d="M20.1,40c0,0,0,1.1,0,1.2c0,0.3,0.6,0.1,1.1,0c0.6,0,1-0.3,1-0.3s0-1-0.1-1H20.1z"/>
		</g>
	</g>
	<path fill="#FFB4AB" d="M24.3,25.9c0,0.2,0.2,0.7,0.6,0.6c0.4-0.1,0.5-0.5,0.5-0.8c0-0.3-0.1-1.2-0.4-1.5s-0.8-0.1-0.8-0.1
		S24.2,25.5,24.3,25.9z"/>
	<path fill="#DCEEFF" d="M22.5,16c0,0-0.2-0.7,0.2-0.8c0.5-0.1,0.9,0.4,0.9,0.7c0.1,0.4,1,5.1,1,5.2c0,0.1,0.8,2.9,0.7,3.2
		c-0.1,0.3-0.4,0.4-0.8,0.4c-0.3,0-0.7,0-0.8-0.7c-0.1-0.7-1.1-5.4-1.1-5.4L22.5,16z"/>
	<path fill="#8590AA" d="M18.9,29.4l-0.3-7.8l0.1-5.4c0,0,1.3-0.7,2.2-0.8c1.2-0.1,2-0.5,2.1-0.2c0.2,0.4,0.6,7.9,0.4,8.3
		s0.2,10.8,0.2,11c0.2,4.1-2.4,2.4-2.4,2.4L18.9,29.4z"/>
	<path fill="#424F5B" d="M19.5,35c0,0,1.7-0.4,1.9-0.4c0.5,0,0.9-0.2,1.4,0c0.5,0.3,0.6,1.3,0.6,2c0,0.3,0,5.4,0,5.4s-0.5,0.6-1,0.6
		c-0.6,0-1.1,0-1.1-0.2c0-0.3,0-4.9,0-4.9s-0.3-0.4-0.8-0.1c-0.4,0.2-2.4,1-2.4,1L19.5,35"/>
	<polygon fill="#F3FAFF" points="22.2,19.5 22.2,15.8 21.4,15.3 20.7,15.6 	"/>
	<path fill="#FFB4AB" d="M25.1,19.2c0,0,0.8-0.1,0.8,0.4c0,0.4-0.2,0.6-0.4,0.8s-1.4,0.5-1.6,0.4c-0.1-0.1-0.1-0.4-0.1-0.4l-0.2-0.4
		C23.6,19.9,24.7,19.2,25.1,19.2z"/>
	<path fill="#DCEEFF" d="M18.3,17.4c0,0-0.2-1.2,0.8-1.2c0.9-0.1,0.9,1.2,0.9,1.2l0.2,2.8c0,0,0.1,0.5,0.2,0.5
		c0.1,0,0.4-0.2,0.7-0.2c0.3-0.1,2.5-0.8,2.5-0.8s0.3,0.1,0.4,0.4c0.3,0.6,0.1,0.8-0.3,1.1c-0.2,0.1-2.4,1.1-3.3,1.4
		c-0.4,0.1-0.9,0.6-1.4-0.4C18.3,21,18.3,17.4,18.3,17.4z"/>
	<path fill="#F3FAFF" d="M20.8,20.3c0.2-0.3,2.2-1,2.6-0.8c0.4,0.2,0.7,2.1,0.7,2.9c0,0.8-2.8,2.2-3.1,1.5
		C20.8,23.4,20.5,20.8,20.8,20.3z"/>
	<path fill="#F7ABA6" d="M20.5,14.2c0,0,0.3,0.5,0.2,1c-0.1,0.4,0,1,0.7,1c0.9,0.1,0.8-0.3,0.8-0.5c0-0.2-0.4-1.5-0.4-1.5H20.5z"/>
	<path fill="#1F2022" d="M22.3,36.2c0,0-0.4,0.4-0.5,0.7c-0.1,0.3,0.2,0.6,0.4,0.7c0.2,0.1,0.5,0.2,0.7,0.4c0.2,0.1,1.1,0.6,1.5,0.6
		c0.4,0,0.7-0.1,0.8-0.2s0-0.4-0.1-0.5c-0.1-0.1-0.7-0.4-0.9-0.5c-0.2-0.1-0.9-0.3-1.1-0.3C22.8,36.9,22.3,36.2,22.3,36.2z"/>
	<path fill="#060200" d="M22.4,11.2c0.3,0.3,0.9,1.1,0.6,1.4c-0.3,0.4-0.8,0.5-1,0.5c-0.2,0,0,0.4-0.3,0.6c-0.3,0.2-1.1,0.9-1.3,0.9
		c-0.5-0.1-0.9-1.1-1-1.9c0-0.6,0.5-1.2,0.7-1.3c0.4-0.3,1.1-0.3,1.3-0.3C21.9,11,22.2,11.1,22.4,11.2z"/>
	<path fill="#FFB4AB" d="M23,13.4c0-0.4-0.1-0.8-0.1-0.8s-0.5,0.2-0.6,0.2c-0.3,0.1-0.7-0.1-0.8-0.1c-0.3,0.1-0.3,1-0.3,1.1
		s-0.3,0.2-0.4,0s-0.2-0.3-0.3-0.3c-0.1,0-0.3,0.3-0.1,0.5c0.1,0.2,0.2,0.4,0.2,0.4c0.1,0.1,0.3,0.4,0.6,0.5
		c0.2,0.1,0.8,0.2,1.1,0.1c0.1-0.1,0.4-0.2,0.5-0.5C22.9,14.4,23,13.8,23,13.4z"/>
	<path fill="#F3FAFF" d="M23.6,23.6c0,0-1.7,0.9-2.4,1.1c-0.4,0.1-2.2,0.2-2.4,0.3c-0.2,0.1-0.2,1.9-0.2,2.3c0,0.4,0.1,2.3,0.4,2.9
		c0.2,0.6,0.4,1.2,0.4,1.2l1,0.3l2.3-1.1l0.8-0.8l0.7-0.6L23.6,23.6z"/>
	<path fill="#301409" d="M21,39.5L21,39.5l0.1,4.9l0.8,0.4c0,0,0.1-2.5,0.1-5.3H21z"/>
	<polygon fill="#EDD7C9" points="14,38.5 18,36 22.8,38.6 18.5,41.6 	"/>
	<polygon fill="#4F2612" points="18.5,42.3 22.5,39.8 22.6,38.8 18.3,41.1 	"/>
	<polygon fill="#4F2612" points="22.6,44.4 22.6,38.8 22,39.4 21.9,44.8 	"/>
	<polygon fill="#4F2612" points="18.9,46.5 18.9,41.1 18.3,41.1 18.3,46.7 	"/>
	<path fill="#301409" d="M37,22.4c0-0.6-0.8-0.9-1.9-1.6c-1.2-0.7-2.4-1.3-2.4-0.7c0,1.9,0,12.7,0,12.7l0.8,0.3l0-4.6l2.7,1.5l0,4.7
		l0.9,0.5C37,35.3,37.1,26,37,22.4z M33.1,22.3v-1.2l3.3,2l0.1,1.9L33.1,23L33.1,22.3z M36.4,28.9L33.1,27v-0.2V24l3.3,1.8
		L36.4,28.9z"/>
	<path fill="#301409" d="M36.2,30.7L35.9,31l0,4.7l0.5,0.4c0,0,0-2.6,0-5.5L36.2,30.7z"/>
	<polygon fill="#4F2612" points="32.8,33.7 37.1,31.1 37.1,29.9 32.6,32.6 	"/>
	<polygon fill="#4F2612" points="37,35.7 37.1,30.1 36.5,30.6 36.5,36.1 	"/>
	<polygon fill="#4F2612" points="33.3,37.8 33.3,32.6 32.6,32.6 32.6,38.1 	"/>
	<polygon fill="#EDD7C9" points="28.3,29.9 32.8,27.4 37.1,29.9 32.4,32.9 	"/>
	<path fill="#301409" d="M32.1,32.7l0.1,0.2l0,4.9l0.5,0.3c0,0,0-2.7,0-5.5L32.1,32.7z"/>
	<path fill="#301409" d="M29.7,40.3c0,0.8-1,1.3-2.2,1.3c-1.2,0-2.2-0.4-2.2-1.3c0-0.8,1-1.3,2.2-1.3C28.7,38.9,29.7,39.5,29.7,40.3
		z"/>
	<path fill="#4F2612" d="M29.7,39.9c0,0.7-1,1.3-2.2,1.3c-1.2,0-2.2-0.6-2.2-1.3c0-0.8,1-1.2,2.2-1.2C28.7,38.8,29.7,39.2,29.7,39.9
		z"/>
	<path fill="#5B2D1A" d="M28.3,35.8c0,0,0,3.1,0,4.1c0,0.2-0.2,0.5-0.8,0.5c-0.5,0-0.8-0.1-0.8-0.4c0-1.1,0-4.2,0-4.2l0.8-1.5
		L28.3,35.8z"/>
	<polygon fill="#D35375" points="30.8,22.5 28.4,26.3 28.9,27.7 30.7,25.5 31.3,23.5 	"/>
	<path fill="#BB3753" d="M34.4,23.3c0.8,0.5,0.1,4.1,0.1,4.1s0.4,2.6,0.3,2.9c-0.1,0.1-1.1,1-1.1,1l-2.3-0.6l-1-0.3l-0.3-2.1
		c0,0,0.4-0.8,0.5-1.1c0.1-0.2,0.3-0.9,0.1-1.2c-0.1-0.2-0.6-0.4-0.5-1.3c0.2-0.8,0.3-1.7,0.3-1.7s0-0.8,0.5-0.7s1.5,0.3,1.5,0.3
		S33.7,22.8,34.4,23.3z"/>
	<path fill="#F7ABA6" d="M30.4,33.8c0,0-0.2,2.4-0.2,2.5c0,0.2,0,0.7,0,0.7l-0.6,1.2l-0.6,0.3l-0.5-0.3c0,0,0.1,0.1,0.4-0.3
		c0.1-0.1,0.3-0.4,0.4-0.8c0.1-0.6,0.1-0.7,0.1-1c0-0.4-0.3-1.9-0.3-1.9L30.4,33.8z"/>
	<path fill="#F7ABA6" d="M31.6,34.1c0,0-0.2,2.3-0.2,2.5c0,0.2,0,0.8,0,0.8l-0.6,1.2L30.3,39l-0.5-0.3c0,0,0.1,0.1,0.4-0.3
		c0.1-0.1,0.4-0.4,0.5-0.9c0.2-0.5,0.1-0.6,0.1-0.8c0-0.4-0.2-2.1-0.2-2.1L31.6,34.1z"/>
	<path fill="#060200" d="M31.1,37.8c-0.1,0.2-0.2,0.7-0.5,0.9c-0.2,0.2-0.6,0-0.7,0c-0.1,0-0.2-0.1-0.1,0.2c0.1,0.3,0.7,0.3,1,0.1
		c0.1-0.1,0.4-0.5,0.4-0.6c0-0.1,0,0.4,0,0.4l0.2-0.2c0,0,0-0.6,0.1-1c0-0.1,0-0.1,0-0.3C31.4,37.3,31.2,37.6,31.1,37.8z"/>
	<path fill="#301409" d="M34.6,31.7c0,2.3-3.2,4.1-7.1,4.1s-7.1-1.8-7.1-4.1c0-2.6,3.2-3.7,7.1-3.7S34.6,29.4,34.6,31.7z"/>
	<path fill="#4F2612" d="M34.6,31.3c0,2.3-3.2,4.1-7.1,4.1s-7.1-1.8-7.1-4.1c0-2.6,3.2-3.7,7.1-3.7S34.6,29,34.6,31.3z"/>
	<g>
		<polygon fill="#060200" points="24.2,28.7 28.7,31.9 25.7,34.1 21.1,30.8 		"/>
		<polygon fill="#EDD7C9" points="21.6,30.7 24.2,29 25.9,30.3 23.4,32.1 		"/>
		<polygon fill="#EDD7C9" points="23.9,32.4 26.3,30.5 28.1,31.9 25.5,33.6 		"/>
	</g>
	<path fill="#060200" d="M30.1,21.1c0,0,0.6-0.3,0.7-0.7s0-1.4,1-2.1c1-0.7,1.7-0.3,2.2-0.1c0.8,0.3,1.2,3.1,1.2,3.4
		c-0.1,1.1-1.9,0.4-2.6,0.4C30.2,22,30.1,21.4,30.1,21.1z"/>
	<path fill="#F7ABA6" d="M31.9,24.5c0.4,0.1,1.2-0.8,1.4-1c0.2-0.2,0.5-0.6,0.4-0.6c-0.1,0-0.2-0.1-0.4-0.2c-0.2-0.1-0.1-1-0.1-1
		l-1.3-0.1c0,0,0.2,0.9-0.3,0.9c-0.1,0-0.1,1.4,0,1.7C31.7,24.4,31.7,24.5,31.9,24.5z"/>
	<path fill="#FFB4AB" d="M32.7,19.2c0,0-0.1,0.7-0.5,0.8c-0.4,0-0.9,0.2-0.9,0.1c-0.1-0.1-0.2,0.9-0.1,1.1c0.1,0.4,0.3,1.1,0.8,1.1
		c0.5,0,1.2-0.3,1.3-0.5c0.3-0.4,0-1.9-0.2-2.1C32.8,19.4,32.7,19.2,32.7,19.2z"/>
	<polygon fill="#060200" points="26.6,24.3 29.3,25.5 30.6,30.1 27.8,28.7 	"/>
	<path fill="#F7ABA6" d="M29.2,28.1C29,28,28.9,27.9,29,27.6c0.1-0.3,0.3-0.3,0.5-0.3c0.2,0.1,0.6,0.3,0.8,0.4s0.5,0,0.6,0
		c0.1,0,0,0.4,0,0.4s-0.5,0.2-0.9,0.1C29.5,28.2,29.3,28.1,29.2,28.1z"/>
	<path fill="#D35375" d="M33.9,24.2c0-0.3,0.1-0.9,0.5-0.9c0.5,0,0.7,0.6,0.7,0.9c0,0.3-0.2,4.2-0.4,4.5c-0.2,0.3-3.5-0.2-3.8-0.3
		c-0.3-0.1-0.3-0.3-0.3-0.5c0-0.2,0.1-0.2,0.2-0.3c0.6-0.2,2.4,0.3,2.4,0.3s0.6,0.1,0.7,0c0.1-0.1,0.1-0.5,0.1-0.5
		S33.9,25.1,33.9,24.2z"/>
	<path fill="#F7ABA6" d="M27.2,27.1c0,0.2,0.2,0.3,0.3,0.3c0.1,0,0.3-0.3,0.2-0.7c0-0.2-0.5-0.4-0.5-0.3
		C27.2,26.6,27.2,26.8,27.2,27.1z"/>
	<path fill="#FFB4AB" d="M23.5,33.3c0,0,0.4-0.5,0.6-0.7c0.3-0.3,0.7-0.2,0.9-0.2c0.3,0,0.4,0.1,0.5,0.3c0.1,0.1,0.1,0.4,0,0.6
		c-0.2,0.2-0.6,0.4-0.8,0.5C24.5,34,24.4,34,24.2,34C24,34,23.5,33.3,23.5,33.3z"/>
	<path fill="#FFB4AB" d="M21.5,31c0,0,0.1,0.3,0.6,0.6c0.3,0.2,0.8,0.2,1,0.1c0.2-0.1,0.4-0.7-0.2-0.9c-0.6-0.3-1.2-0.3-1.3-0.3
		c-0.1,0-0.4,0.3-0.4,0.3L21.5,31"/>
	<path fill="#1F2022" d="M22.6,43.6c0,0,0,0.6,0.1,0.8c0.1,0.3,0.6,0.2,0.8,0.2c0.2-0.1,0.5-0.2,0.8-0.2c0.2,0,1.1-0.4,1.4-0.6
		c0.3-0.3,0.5-0.6,0.4-0.7s-0.3-0.3-0.4-0.3c-0.1,0-0.8,0.2-1,0.3s-0.8,0.4-1.1,0.6C23.4,43.7,22.6,43.6,22.6,43.6z"/>
	<path fill="#4C5968" d="M20.8,36.2c0,0,1.7-0.4,1.9-0.4c0.5,0,0.9-0.2,1.4,0c0.5,0.3,0.6,1.3,0.6,2c0,0.3,0,5.4,0,5.4
		s-0.5,0.6-1,0.6c-0.6,0-1.1,0-1.1-0.2c0-0.3,0-4.9,0-4.9s-0.3-0.4-0.8-0.1c-0.4,0.2-2.4,1-2.4,1L20.8,36.2"/>
	<path fill="#515F6D" d="M20.6,29.7c0,0,0.8,0.3,1,0.4c0.1,0.1,0.5,0.1,0.4,0.3c-0.1,0.1-0.3,0.6-0.5,0.7c-0.1,0.1-0.7-0.2-0.7-0.2
		l-0.9-0.3l-0.2-0.5v-0.4l0.2-0.3L20.6,29.7z"/>
	<path fill="#4C5968" d="M15.7,30.3c0,0,0-1.8,1.3-1.7c1.3,0.1,2.7,0.6,3,0.8c0.4,0.2,0.5,0.7,0.5,0.7l0.6,6.1l0.2,2.3
		c0,0-1.5,0.8-1.9,1c-0.4,0.2-1.7,0.2-2.1,0c-0.5-0.2-1.7-0.9-1.9-1.4c-0.1-0.4,0.1-4.4,0.1-4.4L15.7,30.3z"/>
	<path fill="#515F6D" d="M19.1,31.1c0,0-0.3-0.9,0.8-1.1c0.6-0.1,0.7,0.1,0.8,0.3c0.1,0.2,0.8,2.6,0.8,2.6s0.3,1,0.5,1
		c0.2,0,0.7-0.5,0.8-0.5c0.1-0.1,0.5-0.5,0.8-0.3c0.2,0.2,0.9,0.8,0.7,1.1c-0.1,0.3-2.6,1.5-2.6,1.5s-0.7,0.5-1-0.3
		S19.1,31.1,19.1,31.1z"/>
	<polygon fill="#F7ABA6" points="17.4,28.9 17.5,27.5 19.1,27.8 19.1,28.7 18.3,29.2 	"/>
	<path fill="#FFB4AB" d="M20,24.8c0,0,0.3,0.7,0.2,1.6c-0.1,0.9-0.1,1.2-0.3,1.6c-0.2,0.4-1.3,0.6-1.9-0.6c-0.7-1.6,0.3-2.2,0.3-2.2
		L20,24.8z"/>
	<path fill="#301409" d="M18.2,28.4c-0.4-0.1-0.8-0.3-1.4-0.9c-0.7-0.7-0.6-1.4-0.6-1.9c0-0.5,0.4-1.3,1-1.6
		c0.6-0.4,1.3-0.6,2.3-0.1c1,0.5,1,1,1,1.2c-0.1,0.2-0.6,0.2-0.7,0.2c-0.1,0-0.3,0.1-0.4,0.3c0,0.2,0.1,0.6,0,0.6
		c-0.2,0.2-0.6-0.2-0.7,0c-0.1,0.1-0.1,0.5-0.1,0.6c0,0.2,0.1,0.3,0,0.5s-0.2,0.4-0.2,0.6c0,0.2,0.2,0.7,0.2,0.7
		C18.5,28.5,18.2,28.4,18.2,28.4z"/>
	<path fill="#515F6D" d="M17.1,29.1c-0.1-0.1-0.3-0.5,0-0.6c0.2-0.1,0.3,0,0.3,0.1c0.1,0.1,0.4,0.3,0.7,0.3c0.5,0,0.7-0.1,0.8-0.2
		c0.1-0.1,0.3-0.1,0.4,0.1c0.1,0.1,0.2,0.3,0.1,0.4c-0.1,0.1-0.6,0.5-1.3,0.4C17.5,29.5,17.3,29.4,17.1,29.1z"/>
	<path fill="#301409" d="M18.3,33.9c0-0.6-0.8-0.9-1.9-1.6C15.2,31.6,14,31,14,31.7c0,1.9,0,12.7,0,12.7l0.8,0.3l0-4.6l2.7,1.5
		l0,4.7l0.9,0.5C18.3,46.8,18.4,37.5,18.3,33.9z M14.4,33.8v-1.2l3.3,2v1.3L14.4,34V33.8z M17.7,40.3l-3.3-1.9v-0.2v-2.8l3.3,1.8
		L17.7,40.3z"/>
	<path fill="#060200" d="M29.9,37.4c-0.1,0.2-0.2,0.7-0.5,0.9c-0.2,0.2-0.6,0-0.7,0c-0.1,0-0.2-0.1-0.1,0.2c0.1,0.3,0.7,0.3,1,0.1
		c0.1-0.1,0.4-0.5,0.4-0.6s0,0.4,0,0.4l0.2-0.2c0,0,0-0.6,0.1-1c0-0.1,0-0.1,0-0.3C30.2,36.9,29.9,37.2,29.9,37.4z"/>
</g>
<g id="Layer_19_copy">
</g>
<g id="Layer_21">
</g>
<g id="Layer_22">
</g>
<g id="Layer_1" display="none">
</g>
<g id="Layer_17">
</g>
<g id="Layer_16">
</g>
</svg>
