<?xml version="1.0" encoding="utf-8"?>
<!-- Generator: Adobe Illustrator 17.1.0, SVG Export Plug-In . SVG Version: 6.00 Build 0)  -->
<!DOCTYPE svg PUBLIC "-//W3C//DTD SVG 1.1//EN" "http://www.w3.org/Graphics/SVG/1.1/DTD/svg11.dtd">
<svg version="1.1" xmlns="http://www.w3.org/2000/svg" xmlns:xlink="http://www.w3.org/1999/xlink" x="0px" y="0px"
	 viewBox="0 0 50 50" enable-background="new 0 0 50 50" xml:space="preserve">
<g id="Layer_6">
</g>
<g id="grid" display="none">
</g>
<g id="Layer_1">
</g>
<g id="Layer_4" display="none">
</g>
<g id="Layer_10">
</g>
<g id="Layer_8">
</g>
<g id="принятие_заказа">
	<g id="Layer_2">
	</g>
	<g id="Слой_1">
		<g id="Layer_7">
		</g>
	</g>
	<g id="Layer_1_1_">
	</g>
</g>
<g id="chef">
</g>
<g id="Layer_12" display="none">
</g>
<g id="Layer_14">
	<rect x="9" y="16" transform="matrix(0.9556 0.2946 -0.2946 0.9556 5.3596 -2.2053)" fill="#3F4B5E" width="2" height="1.4"/>
	<polygon fill="#D6D6D6" points="12.1,14 9.4,23.8 19.4,21.2 22.1,11.6 	"/>
	<polygon fill="#727E96" points="11.3,13.1 8.6,22.9 9.4,23.8 12.3,13.8 	"/>
	<g>
		<g>
			<polygon fill="#969FB2" points="21.1,10.8 11.3,13.1 12.1,14 22.1,11.6 			"/>
		</g>
	</g>
	<polygon fill="#2F7BBA" points="16.3,13.7 13,14.5 12.7,15.5 16,14.7 	"/>
	<polygon fill="#D6D6D6" points="18.7,12.4 18.5,13.4 21.8,12.6 22.1,11.6 	"/>
	<path fill="#040E0F" d="M31.9,45.5c-0.3-0.2-1.3-0.6-1.5-0.3c-0.2,0.3,0.3,1.1,1,1.5c0.7,0.4,1.1,0.6,1.5,0.7
		c0.2,0.1,0.9,0.2,1.1,0c0.2-0.3,0.3-0.7-0.4-0.8C33.1,46.5,32.4,45.7,31.9,45.5z"/>
	<path fill="#040E0F" d="M35.8,43.7c-0.3-0.2-1.3-0.6-1.5-0.3c-0.2,0.3,0.3,1.1,1,1.5c0.7,0.4,1.1,0.6,1.5,0.7
		c0.2,0.1,0.6,0.1,0.8-0.1c0.2-0.3,0.3-0.4,0-0.7S36.2,43.9,35.8,43.7z"/>
	<path fill="#040E0F" d="M32,34.6l4.7-0.8l1,11.3c0,0-0.9-0.5-1.4-1c-0.2-0.1-1-0.7-1-0.7l-0.4-6l-0.4,0.2l-0.4,9.5l-2.6-1.3
		L32,34.6z"/>
	<path fill="#FBB7AA" d="M36.7,28.3c0,0,0.1,0.6,0.1,0.8c0,0.2,0,0.9-0.1,1.1c-0.1,0.3-0.4,1-0.4,1s-0.2-0.7-0.3-0.8
		c-0.1-0.1-0.3-0.9-0.3-1s0.3-0.8,0.3-0.8L36.7,28.3z"/>
	<path fill="#2268AF" d="M31.7,31.1c0,0-0.3,3.5-0.2,3.9c0.2,0.3,0.6,1,2.2,0.7c1.7-0.3,3.2-1.2,3.2-1.9c-0.1-2.1-0.7-4.9-0.7-4.9
		c0,0,0.3-0.1,0.6-0.4c0.2-0.2-0.1-2-1.3-2.5c-1.6-0.7-2.4,0-3,0.4C32.1,26.6,31.7,31.1,31.7,31.1z"/>
	<path fill="#F2A79E" d="M33.9,26.1c0.3,0,0.7-0.4,0.7-0.4l-0.1-0.8l-0.4-0.5l-1,0.1L33,24.8l0.1,1.2C33.1,26,33.3,26.2,33.9,26.1z"
		/>
	<path fill="#FBB7AA" d="M32.8,25c-0.2-0.1-0.7-0.4-0.7-1.3c-0.1-0.8,0.3-1.5,0.3-1.5l1.8,2.1l-0.1,0.7C34.1,25.1,33.2,25.2,32.8,25
		z"/>
	<path fill="#FBB7AA" d="M30.9,29.6l1,0.8c0,0-1.2,1.4-1.6,1.3c-0.3-0.1-0.6-0.4-0.6-0.4c-0.1-0.1-1.3-1.5-1.9-1.8
		c-0.2-0.1-0.7-0.2-1-0.3c-0.2-0.1-0.5-0.3-0.6-0.5c-0.1-0.1-0.3-0.3-0.1-0.7C26.4,27.6,27,28,27,28s0.4,0.2,0.5,0.2
		c0.1-0.1-0.4-0.5-0.3-0.7c0,0,0.1-0.1,0.1,0c0.1,0.2,0.5,0.6,0.6,0.7c0.2,0.2,0.4,0.6,0.4,0.7c1.5,1,1.6,1.2,1.9,1.4
		C30.6,30.4,30.9,29.6,30.9,29.6z"/>
	<path fill="#2F7BBA" d="M32.5,26.4c0.1-0.1,0.3-0.1,0.5,0.1c0.2,0.3,0.4,0.7,0.4,1.6c0,0-0.1,1-0.3,1.3c-0.2,0.4-0.5,0.9-0.9,1
		c-0.2,0.1-1.2-0.4-1.5-1c-0.1-0.2,0.1-0.9,0.3-1.3C31.3,27.7,32,26.7,32.5,26.4z"/>
	<path fill="#020100" d="M34.7,25.2c0,0,1.1,0,1.1-1.6c0-1-0.1-1.9-0.8-2.4c-0.6-0.5-1.7-0.6-2.3-0.1c-0.5,0.5-0.9,1.2-0.5,2
		c0.2,0.3,0.4,0.7,0.6,0.8c0.1,0-0.1-0.3,0.2-0.4c0.1,0,0.3,0.1,0.3,0.2c0,0.2-0.1,0.5,0.1,0.7C34.2,25.3,34.7,25.2,34.7,25.2z"/>
	<polygon fill="#9BC134" points="20.7,12.7 17.4,13.4 17.1,14.4 20.5,13.6 	"/>
	<polygon fill="#3F4B5E" points="18,15.1 16.9,15.4 16.6,16.3 17.7,16.1 	"/>
	<polygon fill="#3F4B5E" points="20.2,14.7 19.1,14.9 18.8,15.9 19.9,15.6 	"/>
	<polygon fill="#3F4B5E" points="13.6,16 12.5,16.2 12.2,17.2 13.3,16.9 	"/>
	<polygon fill="#3F4B5E" points="13.1,17.9 12,18.2 11.7,19.1 12.8,18.9 	"/>
	<polygon fill="#3F4B5E" points="12.5,19.8 11.4,20.1 11.2,21 12.3,20.8 	"/>
</g>
<g id="Layer_15">
</g>
<g id="Layer_17">
</g>
<g id="Layer_16">
</g>
</svg>
